<svg xmlns="http://www.w3.org/2000/svg" xmlns:svg="http://www.w3.org/2000/svg" id="svg2" width="12" height="12" version="1.1"><metadata id="metadata7"/><g style="display:inline" id="g3931" transform="translate(0,-1040.3622)"><path id="path3933" d="M 6.9686747,2.5 C 6.9686747,4.4156961 5.4156961,5.9686747 3.5,5.9686747 1.5843039,5.9686747 0.03132534,4.4156961 0.03132534,2.5 c 0,-1.91569612 1.55297856,-3.46867466 3.46867466,-3.46867466 1.9156961,0 3.4686747,1.55297854 3.4686747,3.46867466 z" transform="matrix(1.268496,0,0,1.268496,1.560264,1043.191)" style="fill:none;stroke:#272727;stroke-width:.94600224;stroke-linecap:round;stroke-linejoin:round;stroke-miterlimit:4;stroke-opacity:1;stroke-dasharray:none;stroke-dashoffset:1.6"/><path style="fill:#272727;fill-opacity:1;stroke:#272727;stroke-width:.5;stroke-linecap:round;stroke-linejoin:round;stroke-miterlimit:4;stroke-opacity:1;stroke-dasharray:none;stroke-dashoffset:1.6" id="path3935" d="M 5,4.5 C 5,4.7761424 4.7761424,5 4.5,5 4.2238576,5 4,4.7761424 4,4.5 4,4.2238576 4.2238576,4 4.5,4 4.7761424,4 5,4.2238576 5,4.5 z" transform="matrix(2,0,0,2,-3,1037.3622)"/></g></svg>