<svg xmlns="http://www.w3.org/2000/svg" xmlns:svg="http://www.w3.org/2000/svg" id="svg4992" width="12" height="12" version="1.1"><defs id="defs4994"><linearGradient id="linearGradient4490"><stop style="stop-color:#ac4500;stop-opacity:1" id="stop4492" offset="0"/><stop style="stop-color:#f60;stop-opacity:1" id="stop4494" offset="1"/></linearGradient><marker id="Arrow1Sstart" orient="auto" refX="0" refY="0" style="overflow:visible"><path id="path3872" d="M 0.0,0.0 L 5.0,-5.0 L -12.5,0.0 L 5.0,5.0 L 0.0,0.0 z" transform="scale(0.2) translate(6,0)" style="fill-rule:evenodd;stroke:#000;stroke-width:1pt"/></marker></defs><metadata id="metadata4997"/><g id="g4482" transform="translate(0,-4)" style="display:inline"><path id="path4484" d="m 2.7279322,3.5840389 c 0.2404142,0 0.4353084,0.1948941 0.4353084,0.4353083 -10e-8,0.2404142 -0.1948942,0.4353083 -0.4353084,0.4353083 -0.2404141,0 -0.4353083,-0.1948942 -0.4353083,-0.4353083 0,-0.2404141 0.1948941,-0.4353083 0.4353082,-0.4353083 l 1e-7,0.4353083 z" transform="matrix(2.2972223,0,0,2.2972223,-4.2666666,0.766666)" style="fill:#0c0;fill-opacity:1;fill-rule:nonzero;stroke:none"/><path id="path4486" d="m 2.7279322,3.5840389 c 0.2404142,0 0.4353084,0.1948941 0.4353084,0.4353083 -10e-8,0.2404142 -0.1948942,0.4353083 -0.4353084,0.4353083 -0.2404141,0 -0.4353083,-0.1948942 -0.4353083,-0.4353083 0,-0.2404141 0.1948941,-0.4353083 0.4353082,-0.4353083 l 1e-7,0.4353083 z" transform="matrix(2.2972223,0,0,2.2972223,-0.26666672,0.766666)" style="fill:#0c0;fill-opacity:1;fill-rule:nonzero;stroke:none"/><path id="path4488" d="m 2.7279322,3.5840389 c 0.2404142,0 0.4353084,0.1948941 0.4353084,0.4353083 -10e-8,0.2404142 -0.1948942,0.4353083 -0.4353084,0.4353083 -0.2404141,0 -0.4353083,-0.1948942 -0.4353083,-0.4353083 0,-0.2404141 0.1948941,-0.4353083 0.4353082,-0.4353083 l 1e-7,0.4353083 z" transform="matrix(2.2972223,0,0,2.2972223,3.7333333,0.766666)" style="fill:#0c0;fill-opacity:1;fill-rule:nonzero;stroke:none"/></g></svg>