<svg xmlns="http://www.w3.org/2000/svg" xmlns:svg="http://www.w3.org/2000/svg" id="svg2" width="12" height="12" version="1.1"><metadata id="metadata7"/><g style="display:inline" id="g2992" transform="translate(0,-1040.3622)"><path style="fill:#272727;fill-opacity:1;stroke:#272727;stroke-width:.80000001;stroke-linecap:round;stroke-linejoin:round;stroke-miterlimit:4;stroke-opacity:1;stroke-dasharray:none;stroke-dashoffset:1.6;display:inline" id="path2994" d="M 5,4.5 C 5,4.7761424 4.7761424,5 4.5,5 4.2238576,5 4,4.7761424 4,4.5 4,4.2238576 4.2238576,4 4.5,4 4.7761424,4 5,4.2238576 5,4.5 z" transform="matrix(1.6666666,0,0,1.6666666,-4.9999998,1042.3622)"/><path style="fill:#272727;fill-opacity:1;stroke:#272727;stroke-width:.80000001;stroke-linecap:round;stroke-linejoin:round;stroke-miterlimit:4;stroke-opacity:1;stroke-dasharray:none;stroke-dashoffset:1.6;display:inline" id="path3000" d="M 5,4.5 C 5,4.7761424 4.7761424,5 4.5,5 4.2238576,5 4,4.7761424 4,4.5 4,4.2238576 4.2238576,4 4.5,4 4.7761424,4 5,4.2238576 5,4.5 z" transform="matrix(1.6666666,0,0,1.6666666,2.0000002,1035.3622)"/><path style="fill:#272727;fill-opacity:1;stroke:#272727;stroke-width:.80000001;stroke-linecap:round;stroke-linejoin:round;stroke-miterlimit:4;stroke-opacity:1;stroke-dasharray:none;stroke-dashoffset:1.6;display:inline" id="path3002" d="M 5,4.5 C 5,4.7761424 4.7761424,5 4.5,5 4.2238576,5 4,4.7761424 4,4.5 4,4.2238576 4.2238576,4 4.5,4 4.7761424,4 5,4.2238576 5,4.5 z" transform="matrix(1.6666666,0,0,1.6666666,2.0000002,1042.3622)"/></g></svg>