<svg xmlns="http://www.w3.org/2000/svg" xmlns:svg="http://www.w3.org/2000/svg" id="svg2" width="12" height="12" version="1.1"><metadata id="metadata7"/><g id="g4897" transform="translate(0,-1040.3622)" style="display:inline"><path id="path4903" d="M 5,4.5 C 5,4.7761424 4.7761424,5 4.5,5 4.2238576,5 4,4.7761424 4,4.5 4,4.2238576 4.2238576,4 4.5,4 4.7761424,4 5,4.2238576 5,4.5 z" transform="matrix(1.6666666,0,0,1.6666666,-4.9999998,1042.3622)" style="fill:#272727;fill-opacity:1;stroke:#272727;stroke-width:.80000001;stroke-linecap:round;stroke-linejoin:round;stroke-miterlimit:4;stroke-opacity:1;stroke-dasharray:none;stroke-dashoffset:1.6;display:inline"/><path style="fill:none;stroke:#272727;stroke-width:1.20000005;stroke-linecap:round;stroke-linejoin:round;stroke-miterlimit:4;stroke-opacity:1;stroke-dasharray:none;display:inline" id="path5064-9" d="m 3,1049.8622 6,0"/><path style="fill:none;stroke:#272727;stroke-width:1.20000005;stroke-linecap:round;stroke-linejoin:round;stroke-miterlimit:4;stroke-opacity:1;stroke-dasharray:none" id="path5064" d="m 9.4999999,1043.3622 0,6"/><path id="path4901" d="M 5,4.5 C 5,4.7761424 4.7761424,5 4.5,5 4.2238576,5 4,4.7761424 4,4.5 4,4.2238576 4.2238576,4 4.5,4 4.7761424,4 5,4.2238576 5,4.5 z" transform="matrix(1.6666666,0,0,1.6666666,2.0000002,1035.3622)" style="fill:#272727;fill-opacity:1;stroke:#272727;stroke-width:.80000001;stroke-linecap:round;stroke-linejoin:round;stroke-miterlimit:4;stroke-opacity:1;stroke-dasharray:none;stroke-dashoffset:1.6;display:inline"/><path id="path4901-1" d="M 5,4.5 C 5,4.7761424 4.7761424,5 4.5,5 4.2238576,5 4,4.7761424 4,4.5 4,4.2238576 4.2238576,4 4.5,4 4.7761424,4 5,4.2238576 5,4.5 z" transform="matrix(1.6666666,0,0,1.6666666,2.0000002,1042.3622)" style="fill:#272727;fill-opacity:1;stroke:#272727;stroke-width:.80000001;stroke-linecap:round;stroke-linejoin:round;stroke-miterlimit:4;stroke-opacity:1;stroke-dasharray:none;stroke-dashoffset:1.6;display:inline"/></g></svg>