<svg xmlns="http://www.w3.org/2000/svg" xmlns:svg="http://www.w3.org/2000/svg" id="Layer_1" width="12" height="12" enable-background="new 0 0 50 50" version="1.1" viewBox="0 0 12 12" xml:space="preserve"><metadata id="metadata11"/><rect id="rect3" width="50" height="50" x="0" y="-38" style="fill:none"/><g id="g22533" transform="translate(0,-4)" style="display:inline"><path style="fill:red;fill-opacity:1;stroke:none;stroke-width:.47999999;stroke-miterlimit:10;stroke-dasharray:none;stroke-opacity:1" id="path22535" stroke-miterlimit="10" d="m 3.8642506,11.086959 c 0,0 0.4829147,0.84354 0.5989553,1.064372 0.1164581,0.220209 0.1458331,0.448332 0.06125,0.586874 C 4.3961245,12.947998 3.2242535,14.709658 3.120504,14.857991 3.0165457,15.006324 2.7196726,15.07778 2.4288407,14.873831 2.1378007,14.670912 0.98780637,13.733832 1.0000979,13.336749 1.0130152,12.939042 1.0492645,11.285504 4.1682075,8.1673878 7.2863173,5.0496884 8.9402659,5.0128127 9.337765,5.0001044 9.7352636,4.9873987 10.672759,6.1373925 10.876091,6.4282232 11.079215,6.719473 11.002758,7.0167636 10.859842,7.1200969 10.697134,7.2375914 8.9411028,8.3959227 8.7396456,8.5234226 8.6023558,8.6107153 8.3729806,8.5786299 8.1525658,8.4621725 7.9315236,8.3463395 7.0881947,7.8634244 7.0881947,7.8634244 c 0,0 -0.580622,0.3404156 -1.7316582,1.491663 C 4.2052898,10.506545 3.8642498,11.086959 3.8642498,11.086959 Z"/></g></svg>