<svg xmlns="http://www.w3.org/2000/svg" xmlns:svg="http://www.w3.org/2000/svg" id="Layer_1" width="16" height="16" enable-background="new 0 0 50 50" version="1.1" viewBox="0 0 16 16" xml:space="preserve"><metadata id="metadata11"/><rect id="rect3" width="50" height="50" x="0" y="-34" style="fill:none"/><g id="layer1"><path id="path5" stroke-miterlimit="10" d="m 5.5396163,9.252177 c 0,0 0.5563174,0.971756 0.6899968,1.226155 0.1341593,0.253679 0.1679992,0.516477 0.07056,0.676077 -0.1478397,0.241679 -1.4978334,2.271109 -1.6173529,2.441988 -0.1197594,0.17088 -0.4617578,0.253198 -0.7967963,0.01824 C 3.5507455,13.380878 2.2259516,12.301363 2.2401116,11.843925 2.2549916,11.385768 2.2967516,9.480896 5.8897746,5.888833 9.481838,2.29725 11.387189,2.25477 11.845107,2.24013 c 0.457919,-0.01464 1.537914,1.310154 1.772152,1.645192 0.233999,0.335519 0.14592,0.677997 -0.01872,0.797037 -0.18744,0.135359 -2.210391,1.469753 -2.44247,1.616632 -0.158159,0.10056 -0.422398,0.0636 -0.676316,-0.07056 C 10.225114,6.094992 9.2535981,5.538675 9.2535981,5.538675 c 0,0 -0.6688769,0.392158 -1.9948708,1.718392 -1.3262339,1.326474 -1.719112,1.99511 -1.719112,1.99511 z" style="fill:#333;fill-opacity:1;stroke:#222;stroke-width:.47999778;stroke-miterlimit:10;stroke-opacity:1"/></g></svg>