<svg xmlns="http://www.w3.org/2000/svg" xmlns:svg="http://www.w3.org/2000/svg" id="svg4113" width="18" height="18" version="1.1"><defs id="defs4115"><marker id="DiamondSend" orient="auto" refX="0" refY="0" style="overflow:visible"><path id="path4745" d="M 0,-7.0710768 -7.0710894,0 0,7.0710589 7.0710462,0 0,-7.0710768 z" transform="matrix(0.2,0,0,0.2,-1.2,0)" style="fill-rule:evenodd;stroke:#000;stroke-width:1pt"/></marker><marker id="StopS" orient="auto" refX="0" refY="0" style="overflow:visible"><path id="path4817" d="M 0,5.65 0,-5.65" transform="scale(0.2,0.2)" style="fill:none;stroke:#000;stroke-width:1pt"/></marker><marker id="EmptyTriangleOutS" orient="auto" refX="0" refY="0" style="overflow:visible"><path id="path4808" d="m 5.77,0 -8.65,5 0,-10 8.65,5 z" transform="matrix(0.2,0,0,0.2,-0.6,0)" style="fill:#fff;fill-rule:evenodd;stroke:#000;stroke-width:1pt"/></marker><marker style="overflow:visible" id="InfiniteLineEnd" orient="auto" refX="0" refY="0"><g id="g4877" style="fill:#000"><circle id="circle4879" cx="3" cy="0" r=".8"/><circle id="circle4881" cx="6.5" cy="0" r=".8"/><circle id="circle4883" cx="10" cy="0" r=".8"/></g></marker><marker id="TriangleOutS" orient="auto" refX="0" refY="0" style="overflow:visible"><path id="path4790" d="m 5.77,0 -8.65,5 0,-10 8.65,5 z" transform="scale(0.2,0.2)" style="fill-rule:evenodd;stroke:#000;stroke-width:1pt"/></marker><marker id="TriangleOutM" orient="auto" refX="0" refY="0" style="overflow:visible"><path id="path4787" d="m 5.77,0 -8.65,5 0,-10 8.65,5 z" transform="scale(0.4,0.4)" style="fill-rule:evenodd;stroke:#000;stroke-width:1pt"/></marker><marker id="Arrow1Send" orient="auto" refX="0" refY="0" style="overflow:visible"><path id="path4657" d="M 0,0 5,-5 -12.5,0 5,5 0,0 z" transform="matrix(-0.2,0,0,-0.2,-1.2,0)" style="fill-rule:evenodd;stroke:#000;stroke-width:1pt"/></marker><marker id="Arrow1Mend" orient="auto" refX="0" refY="0" style="overflow:visible"><path id="path4651" d="M 0,0 5,-5 -12.5,0 5,5 0,0 z" transform="matrix(-0.4,0,0,-0.4,-4,0)" style="fill-rule:evenodd;stroke:#000;stroke-width:1pt"/></marker><marker id="Arrow2Lend" orient="auto" refX="0" refY="0" style="overflow:visible"><path id="path4663" d="M 8.7185878,4.0337352 -2.2072895,0.01601326 8.7185884,-4.0017078 c -1.7454984,2.3720609 -1.7354408,5.6174519 -6e-7,8.035443 z" transform="matrix(-1.1,0,0,-1.1,-1.1,0)" style="fill-rule:evenodd;stroke-width:.625;stroke-linejoin:round"/></marker><marker id="Arrow1Lend" orient="auto" refX="0" refY="0" style="overflow:visible"><path id="path4645" d="M 0,0 5,-5 -12.5,0 5,5 0,0 z" transform="matrix(-0.8,0,0,-0.8,-10,0)" style="fill-rule:evenodd;stroke:#000;stroke-width:1pt"/></marker></defs><metadata id="metadata4118"/><g id="layer1" transform="translate(0,-1034.3622)"><path style="fill:none;stroke:#222;stroke-width:1.32112777;stroke-linecap:round;stroke-miterlimit:4;stroke-opacity:1;stroke-dasharray:none;marker-end:none" id="path4128" d="M 11.701112,8.9522477 C 10.810467,11.401358 8.2075543,12.624633 5.8873442,11.684507 3.5671342,10.744382 2.4082429,7.9968629 3.2988881,5.5477523 4.1895333,3.0986416 6.7924457,1.8753675 9.1126558,2.815493 10.075167,3.2054926 10.88162,3.9325346 11.397115,4.8750007" transform="matrix(1.5555393,0,0,1.4732939,-2.6647636,1032.6808)"/><polyline style="fill:none;stroke:#222;stroke-width:4.50022650000000013;stroke-linecap:round;stroke-miterlimit:10;stroke-opacity:1" id="polyline3087" stroke-miterlimit="10" points="40 7 40 16 31 15.999" transform="matrix(0.44439969,0,0,0.44444445,-1.7763904,1033.2511)"/></g></svg>