<svg xmlns="http://www.w3.org/2000/svg" xmlns:svg="http://www.w3.org/2000/svg" id="bigger" width="96" height="96" enable-background="new 0 0 96 96" version="1.1" viewBox="0 0 96 96" xml:space="preserve"><metadata id="metadata11"/><g style="display:inline" id="g4423"><path id="path4425" d="M 80,4 H 68 c -2.209,0 -4,1.791 -4,4 0,2.209 1.791,4 4,4 h 12 c 2.21,0 4,1.79 4,4 v 12 c 0,2.209 1.791,4 4,4 2.209,0 4,-1.791 4,-4 V 16 C 92,9.373 86.627,4 80,4 z"/><path id="path4427" d="M 28,4 H 16 C 9.373,4 4,9.373 4,16 v 12 c 0,2.209 1.791,4 4,4 2.209,0 4,-1.791 4,-4 V 16 c 0,-2.21 1.79,-4 4,-4 h 12 c 2.209,0 4,-1.791 4,-4 0,-2.209 -1.791,-4 -4,-4 z"/><path id="path4429" d="m 88,64 c -2.209,0 -4,1.791 -4,4 v 12 c 0,2.21 -1.79,4 -4,4 H 68 c -2.209,0 -4,1.791 -4,4 0,2.209 1.791,4 4,4 h 12 c 6.627,0 12,-5.373 12,-12 V 68 c 0,-2.209 -1.791,-4 -4,-4 z"/><path id="path4431" d="M 28,84 H 16 c -2.21,0 -4,-1.79 -4,-4 V 68 c 0,-2.209 -1.791,-4 -4,-4 -2.209,0 -4,1.791 -4,4 v 12 c 0,6.627 5.373,12 12,12 h 12 c 2.209,0 4,-1.791 4,-4 0,-2.209 -1.791,-4 -4,-4 z"/><rect id="rect4433" width="48" height="32" x="24" y="32" ry="10" style="fill:#000;fill-opacity:1;stroke:none"/></g></svg>