<svg xmlns="http://www.w3.org/2000/svg" xmlns:svg="http://www.w3.org/2000/svg" xmlns:xlink="http://www.w3.org/1999/xlink" id="bigger" width="96" height="96" enable-background="new 0 0 96 96" version="1.1" viewBox="0 0 96 96" xml:space="preserve"><metadata id="metadata11"/><defs id="defs9"><linearGradient id="linearGradient4461"><stop id="stop4463" offset="0" style="stop-color:red;stop-opacity:.50196081"/><stop id="stop4465" offset="1" style="stop-color:#d00000;stop-opacity:.50196081"/></linearGradient><linearGradient id="linearGradient3983"><stop style="stop-color:#0f0;stop-opacity:1" id="stop3985" offset="0"/><stop style="stop-color:#00d000;stop-opacity:1" id="stop3987" offset="1"/></linearGradient><linearGradient id="linearGradient12315"><stop style="stop-color:red;stop-opacity:1" id="stop12317" offset="0"/><stop style="stop-color:#d30000;stop-opacity:1" id="stop12319" offset="1"/></linearGradient><linearGradient id="linearGradient11765"><stop style="stop-color:red;stop-opacity:1" id="stop11767" offset="0"/><stop style="stop-color:#d00000;stop-opacity:1" id="stop11769" offset="1"/></linearGradient><linearGradient id="linearGradient11102"><stop style="stop-color:#000;stop-opacity:.43137255" id="stop11104" offset="0"/><stop style="stop-color:#464646;stop-opacity:1" id="stop11106" offset="1"/></linearGradient><radialGradient id="radialGradient11771" cx="12" cy="18" r="29.643" fx="12" fy="18" gradientUnits="userSpaceOnUse" xlink:href="#linearGradient11765"/><radialGradient id="radialGradient12321" cx="48" cy="48" r="44" fx="48" fy="48" gradientUnits="userSpaceOnUse" xlink:href="#linearGradient12315"/><radialGradient id="radialGradient3989" cx="12" cy="18" r="29.643" fx="12" fy="18" gradientUnits="userSpaceOnUse" xlink:href="#linearGradient3983"/><linearGradient id="linearGradient4122" x1="-17.643" x2="41.643" y1="18" y2="18" gradientUnits="userSpaceOnUse" xlink:href="#linearGradient4461"/></defs><g id="g12004" style="display:none"><path id="path12006" d="m 38.947977,18 a 26.947977,26.947977 0 1 1 -53.895954,0 26.947977,26.947977 0 1 1 53.895954,0 z" transform="matrix(1.4843415,0,0,1.4843415,30.187902,21.281853)" style="fill:none;stroke:#000;stroke-width:5.38959551;stroke-linecap:round;stroke-linejoin:round;stroke-miterlimit:4;stroke-opacity:1;stroke-dasharray:none"/><path id="path12008" d="M 63.556404,32.443596 32.443596,63.556404" style="fill:none;stroke:#000;stroke-width:7.99999952;stroke-linecap:round;stroke-linejoin:round;stroke-miterlimit:4;stroke-opacity:1;stroke-dasharray:none"/><path id="path12010" d="M 63.556404,63.556404 32.443596,32.443596" style="fill:none;stroke:#000;stroke-width:7.99999952;stroke-linecap:round;stroke-linejoin:round;stroke-miterlimit:4;stroke-opacity:1;stroke-dasharray:none"/></g><g id="layer15" style="display:none"><path style="fill:url(#radialGradient11771);fill-opacity:1;fill-rule:nonzero;stroke:#000;stroke-width:5.38959551;stroke-linecap:round;stroke-linejoin:round;stroke-miterlimit:4;stroke-opacity:1;stroke-dasharray:none" id="path11668" d="m 38.947977,18 a 26.947977,26.947977 0 1 1 -53.895954,0 26.947977,26.947977 0 1 1 53.895954,0 z" transform="matrix(1.4843415,0,0,1.4843415,30.187902,21.281853)"/><path style="fill:none;stroke:#000;stroke-width:7.99999952;stroke-linecap:round;stroke-linejoin:round;stroke-miterlimit:4;stroke-opacity:1;stroke-dasharray:none" id="path11670" d="M 63.556404,32.443596 32.443596,63.556404"/><path style="fill:none;stroke:#000;stroke-width:7.99999952;stroke-linecap:round;stroke-linejoin:round;stroke-miterlimit:4;stroke-opacity:1;stroke-dasharray:none" id="path11670-8" d="M 63.556404,63.556404 32.443596,32.443596"/></g><g style="display:none" id="g12232"><rect id="rect5204-8" width="80" height="80" x="8" y="8" ry="8.78" style="fill:none;stroke:#000;stroke-width:8;stroke-linecap:round;stroke-linejoin:round;stroke-miterlimit:4;stroke-opacity:1;stroke-dasharray:none;stroke-dashoffset:1.6;display:inline"/><path style="fill:none;stroke:#000;stroke-width:7.99999952;stroke-linecap:round;stroke-linejoin:round;stroke-miterlimit:4;stroke-opacity:1;stroke-dasharray:none" id="path12236" d="M 63.556404,32.443596 32.443596,63.556404"/><path style="fill:none;stroke:#000;stroke-width:7.99999952;stroke-linecap:round;stroke-linejoin:round;stroke-miterlimit:4;stroke-opacity:1;stroke-dasharray:none" id="path12238" d="M 63.556404,63.556404 32.443596,32.443596"/></g><g id="g12269" style="display:none"><rect style="fill:url(#radialGradient12321);fill-opacity:1;stroke:#000;stroke-width:8;stroke-linecap:round;stroke-linejoin:round;stroke-miterlimit:4;stroke-opacity:1;stroke-dasharray:none;stroke-dashoffset:1.6;display:inline" id="rect12271" width="80" height="80" x="8" y="8" ry="8.78"/><path id="path12273" d="M 63.556404,32.443596 32.443596,63.556404" style="fill:none;stroke:#fff;stroke-width:7.99999952;stroke-linecap:round;stroke-linejoin:round;stroke-miterlimit:4;stroke-opacity:1;stroke-dasharray:none"/><path id="path12275" d="M 63.556404,63.556404 32.443596,32.443596" style="fill:none;stroke:#fff;stroke-width:7.99999952;stroke-linecap:round;stroke-linejoin:round;stroke-miterlimit:4;stroke-opacity:1;stroke-dasharray:none"/></g><g style="display:none" id="g3120"><path style="fill:none;stroke:#aaa;stroke-width:5.38959551;stroke-linecap:round;stroke-linejoin:round;stroke-miterlimit:4;stroke-opacity:.4;stroke-dasharray:none" id="path3122" d="m 38.947977,18 a 26.947977,26.947977 0 1 1 -53.895954,0 26.947977,26.947977 0 1 1 53.895954,0 z" transform="matrix(1.4843415,0,0,1.4843415,30.187902,21.281853)"/><path style="fill:none;stroke:#f0f0f0;stroke-width:7.99999952;stroke-linecap:round;stroke-linejoin:round;stroke-miterlimit:4;stroke-opacity:1;stroke-dasharray:none" id="path3124" d="M 63.556404,32.443596 32.443596,63.556404"/><path style="fill:none;stroke:#f0f0f0;stroke-width:7.99999952;stroke-linecap:round;stroke-linejoin:round;stroke-miterlimit:4;stroke-opacity:1;stroke-dasharray:none" id="path3126" d="M 63.556404,63.556404 32.443596,32.443596"/></g><g id="g4108" style="display:none"><path id="path4110" d="m 38.947977,18 a 26.947977,26.947977 0 1 1 -53.895954,0 26.947977,26.947977 0 1 1 53.895954,0 z" transform="matrix(1.4843415,0,0,1.4843415,30.187902,21.281853)" style="fill:url(#linearGradient4122);fill-opacity:1;stroke:#aaa;stroke-width:5.38959551;stroke-linecap:round;stroke-linejoin:round;stroke-miterlimit:4;stroke-opacity:1;stroke-dasharray:none"/><path id="path4112" d="M 63.556404,32.443596 32.443596,63.556404" style="fill:none;stroke:#f0f0f0;stroke-width:7.99999952;stroke-linecap:round;stroke-linejoin:round;stroke-miterlimit:4;stroke-opacity:1;stroke-dasharray:none"/><path id="path4114" d="M 63.556404,63.556404 32.443596,32.443596" style="fill:none;stroke:#f0f0f0;stroke-width:7.99999952;stroke-linecap:round;stroke-linejoin:round;stroke-miterlimit:4;stroke-opacity:1;stroke-dasharray:none"/></g><g id="g6309" style="display:none"><path id="path6311" d="m 38.947977,18 a 26.947977,26.947977 0 1 1 -53.895954,0 26.947977,26.947977 0 1 1 53.895954,0 z" transform="matrix(1.4843415,0,0,1.4843415,30.187902,21.281853)" style="fill:none;stroke:#0af;stroke-width:5.38959551;stroke-linecap:round;stroke-linejoin:round;stroke-miterlimit:4;stroke-opacity:1;stroke-dasharray:none"/><path id="path6313" d="M 63.556404,32.443596 32.443596,63.556404" style="fill:none;stroke:#f0f0f0;stroke-width:7.99999952;stroke-linecap:round;stroke-linejoin:round;stroke-miterlimit:4;stroke-opacity:1;stroke-dasharray:none"/><path id="path6315" d="M 63.556404,63.556404 32.443596,32.443596" style="fill:none;stroke:#f0f0f0;stroke-width:7.99999952;stroke-linecap:round;stroke-linejoin:round;stroke-miterlimit:4;stroke-opacity:1;stroke-dasharray:none"/></g><g style="display:none" id="g7041"><path style="fill:none;stroke:#222;stroke-width:7.99999952;stroke-linecap:round;stroke-linejoin:round;stroke-miterlimit:4;stroke-opacity:1;stroke-dasharray:none" id="path7045" d="M 63.556404,32.443596 32.443596,63.556404"/><path style="fill:none;stroke:#222;stroke-width:7.99999952;stroke-linecap:round;stroke-linejoin:round;stroke-miterlimit:4;stroke-opacity:1;stroke-dasharray:none" id="path7047" d="M 63.556404,63.556404 32.443596,32.443596"/></g><g id="g7242" style="display:none"><path id="path7244" d="M 63.556404,32.443596 32.443596,63.556404" style="fill:none;stroke:#f0f0f0;stroke-width:7.99999952;stroke-linecap:round;stroke-linejoin:round;stroke-miterlimit:4;stroke-opacity:1;stroke-dasharray:none"/><path id="path7246" d="M 63.556404,63.556404 32.443596,32.443596" style="fill:none;stroke:#f0f0f0;stroke-width:7.99999952;stroke-linecap:round;stroke-linejoin:round;stroke-miterlimit:4;stroke-opacity:1;stroke-dasharray:none"/></g><g style="display:none" id="g7452"><path style="fill:none;stroke:red;stroke-width:7.99999952;stroke-linecap:round;stroke-linejoin:round;stroke-miterlimit:4;stroke-opacity:1;stroke-dasharray:none" id="path7454" d="M 63.556404,32.443596 32.443596,63.556404"/><path style="fill:none;stroke:red;stroke-width:7.99999952;stroke-linecap:round;stroke-linejoin:round;stroke-miterlimit:4;stroke-opacity:1;stroke-dasharray:none" id="path7456" d="M 63.556404,63.556404 32.443596,32.443596"/></g><g style="display:none" id="g3082"><path style="fill:none;stroke:#000;stroke-width:5.38959551;stroke-linecap:round;stroke-linejoin:round;stroke-miterlimit:4;stroke-opacity:1;stroke-dasharray:none" id="path3084" d="m 38.947977,18 a 26.947977,26.947977 0 1 1 -53.895954,0 26.947977,26.947977 0 1 1 53.895954,0 z" transform="matrix(1.4843415,0,0,1.4843415,30.187902,21.281853)"/><path style="fill:none;stroke:#000;stroke-width:7.99999952;stroke-linecap:round;stroke-linejoin:round;stroke-miterlimit:4;stroke-opacity:1;stroke-dasharray:none" id="path3088" d="M 70.000078,48 25.999922,48"/></g><g id="g3101" style="display:none"><path id="path3103" d="m 38.947977,18 a 26.947977,26.947977 0 1 1 -53.895954,0 26.947977,26.947977 0 1 1 53.895954,0 z" transform="matrix(1.4843415,0,0,1.4843415,30.187902,21.281853)" style="fill:url(#radialGradient3989);fill-opacity:1;stroke:#000;stroke-width:5.38959551;stroke-linecap:round;stroke-linejoin:round;stroke-miterlimit:4;stroke-opacity:1;stroke-dasharray:none"/><path id="path3105" d="M 70.000078,48 25.999922,48" style="fill:none;stroke:#000;stroke-width:7.99999952;stroke-linecap:round;stroke-linejoin:round;stroke-miterlimit:4;stroke-opacity:1;stroke-dasharray:none"/></g><g style="display:none" id="g6591"><path style="fill:none;stroke:#000;stroke-width:7.99999952;stroke-linecap:round;stroke-linejoin:round;stroke-miterlimit:4;stroke-opacity:1;stroke-dasharray:none" id="path6595" d="m 80,15.999999 c -24.000001,24 -24.000001,24 -24.000001,24"/><path id="path6597" d="m 60,12 c 24,0 24,0 24,0 l 0,24" style="fill:none;stroke:#000;stroke-width:8;stroke-linecap:round;stroke-linejoin:round;stroke-miterlimit:4;stroke-opacity:1;stroke-dasharray:none"/><path style="fill:none;stroke:#000;stroke-width:7.99999952;stroke-linecap:round;stroke-linejoin:round;stroke-miterlimit:4;stroke-opacity:1;stroke-dasharray:none" id="path6601" d="m 16,80.000001 c 24.000001,-24 24.000001,-24 24.000001,-24"/><path id="path6603" d="M 36,84 C 12,84 12,84 12,84 L 12,60" style="fill:none;stroke:#000;stroke-width:8;stroke-linecap:round;stroke-linejoin:round;stroke-miterlimit:4;stroke-opacity:1;stroke-dasharray:none"/></g><g id="g7032" style="display:none"><path id="path7034" d="M 60,36 C 84.000001,12 84.000001,12 84.000001,12" style="fill:none;stroke:#000;stroke-width:7.99999952;stroke-linecap:round;stroke-linejoin:round;stroke-miterlimit:4;stroke-opacity:1;stroke-dasharray:none"/><path style="fill:none;stroke:#000;stroke-width:8;stroke-linecap:round;stroke-linejoin:round;stroke-miterlimit:4;stroke-opacity:1;stroke-dasharray:none" id="path7036" d="m 80,39.999999 c -24,0 -24,0 -24,0 l 0,-24"/><path id="path7038" d="M 36.000001,59.999999 C 12,83.999999 12,83.999999 12,83.999999" style="fill:none;stroke:#000;stroke-width:7.99999952;stroke-linecap:round;stroke-linejoin:round;stroke-miterlimit:4;stroke-opacity:1;stroke-dasharray:none"/><path style="fill:none;stroke:#000;stroke-width:8;stroke-linecap:round;stroke-linejoin:round;stroke-miterlimit:4;stroke-opacity:1;stroke-dasharray:none" id="path7040" d="m 16.000001,56 c 24,0 24,0 24,0 l 0,24"/></g><g id="g6442" style="display:none"><path id="path6446" d="m 80,15.999999 c -24.000001,24 -24.000001,24 -24.000001,24" style="fill:none;stroke:#000;stroke-width:7.99999952;stroke-linecap:round;stroke-linejoin:round;stroke-miterlimit:4;stroke-opacity:1;stroke-dasharray:none"/><path style="fill:none;stroke:#000;stroke-width:8;stroke-linecap:round;stroke-linejoin:round;stroke-miterlimit:4;stroke-opacity:1;stroke-dasharray:none" id="path6463" d="m 64,12 c 20,0 20,0 20,0 l 0,20"/><path id="path6446-2" d="m 16,80.000001 c 24.000001,-24 24.000001,-24 24.000001,-24" style="fill:none;stroke:#000;stroke-width:7.99999952;stroke-linecap:round;stroke-linejoin:round;stroke-miterlimit:4;stroke-opacity:1;stroke-dasharray:none"/><path style="fill:none;stroke:#000;stroke-width:8;stroke-linecap:round;stroke-linejoin:round;stroke-miterlimit:4;stroke-opacity:1;stroke-dasharray:none" id="path6463-5" d="M 32,84 C 12,84 12,84 12,84 L 12,64"/></g><g style="display:none" id="g6203"><path style="fill:#000;fill-opacity:1;stroke:#000;stroke-width:8;stroke-linecap:round;stroke-linejoin:round;stroke-miterlimit:4;stroke-opacity:1;stroke-dasharray:none" id="path6209" d="m 64,12 20,0 0,20 z"/><path style="fill:none;stroke:#000;stroke-width:8;stroke-linecap:round;stroke-linejoin:round;stroke-miterlimit:4;stroke-opacity:1;stroke-dasharray:none" id="path6211" d="M 80,16 C 56,40 56,40 56,40"/><path style="fill:#000;fill-opacity:1;stroke:#000;stroke-width:8;stroke-linecap:round;stroke-linejoin:round;stroke-miterlimit:4;stroke-opacity:1;stroke-dasharray:none" id="path6209-7" d="M 32,84 12,84 12,64 z"/><path style="fill:none;stroke:#000;stroke-width:7.99999952;stroke-linecap:round;stroke-linejoin:round;stroke-miterlimit:4;stroke-opacity:1;stroke-dasharray:none" id="path6211-7" d="M 15.999999,79.999996 C 39.999998,56 39.999998,56 39.999998,56"/></g><g id="g6925" style="display:none"><path id="path6927" d="m 60,12 24,0 0,24 z" style="fill:#000;fill-opacity:1;stroke:#000;stroke-width:8;stroke-linecap:round;stroke-linejoin:round;stroke-miterlimit:4;stroke-opacity:1;stroke-dasharray:none"/><path id="path6929" d="M 80,16 C 56,40 56,40 56,40" style="fill:none;stroke:#000;stroke-width:8;stroke-linecap:round;stroke-linejoin:round;stroke-miterlimit:4;stroke-opacity:1;stroke-dasharray:none"/><path id="path6931" d="M 36,84 12,84 12,60 z" style="fill:#000;fill-opacity:1;stroke:#000;stroke-width:8;stroke-linecap:round;stroke-linejoin:round;stroke-miterlimit:4;stroke-opacity:1;stroke-dasharray:none"/><path id="path6933" d="M 15.999999,79.999996 C 39.999998,56 39.999998,56 39.999998,56" style="fill:none;stroke:#000;stroke-width:7.99999952;stroke-linecap:round;stroke-linejoin:round;stroke-miterlimit:4;stroke-opacity:1;stroke-dasharray:none"/></g><g id="g3096" style="display:none"><path id="path3102" d="m 48.000004,78.000001 c 0,-61.000109 0,-61.000109 0,-61.000109" style="fill:none;stroke:#000;stroke-width:7.99999714;stroke-linecap:round;stroke-linejoin:round;stroke-miterlimit:4;stroke-opacity:1;stroke-dasharray:none"/><path style="fill:none;stroke:#000;stroke-width:8;stroke-linecap:round;stroke-linejoin:round;stroke-miterlimit:4;stroke-opacity:1;stroke-dasharray:none" id="path3104" d="M 66.000001,64.000001 C 48,84.000001 48,84.000001 48,84.000001 l -18.000001,-20"/><path style="fill:none;stroke:#000;stroke-width:12.00000095;stroke-linecap:round;stroke-linejoin:round;stroke-miterlimit:4;stroke-opacity:1;stroke-dasharray:none" id="path3885" d="m 13.999872,14 68.000256,0"/></g><g style="display:none" id="g3910"><path style="fill:none;stroke:#000;stroke-width:7.99999762;stroke-linecap:round;stroke-linejoin:round;stroke-miterlimit:4;stroke-opacity:1;stroke-dasharray:none" id="path3912" d="m 48,27.99993 c 0,56.000071 0,56.000071 0,56.000071"/><path id="path3914" d="M 29.999999,43.999929 C 48,23.999929 48,23.999929 48,23.999929 l 18.000001,20" style="fill:none;stroke:#000;stroke-width:8;stroke-linecap:round;stroke-linejoin:round;stroke-miterlimit:4;stroke-opacity:1;stroke-dasharray:none"/><path id="path3916" d="m 13.999872,14 68.000256,0" style="fill:none;stroke:#000;stroke-width:12.00000095;stroke-linecap:round;stroke-linejoin:round;stroke-miterlimit:4;stroke-opacity:1;stroke-dasharray:none"/></g><g id="g3104" style="display:none"><path id="path3106" d="M 68.00007,48 C 11.999999,48 11.999999,48 11.999999,48" style="fill:none;stroke:#000;stroke-width:7.99999762;stroke-linecap:round;stroke-linejoin:round;stroke-miterlimit:4;stroke-opacity:1;stroke-dasharray:none"/><path style="fill:none;stroke:#000;stroke-width:8;stroke-linecap:round;stroke-linejoin:round;stroke-miterlimit:4;stroke-opacity:1;stroke-dasharray:none" id="path3108" d="m 52.000071,29.999999 c 20,18.000001 20,18.000001 20,18.000001 l -20,18.000001"/><path style="fill:none;stroke:#000;stroke-width:12.00000095;stroke-linecap:round;stroke-linejoin:round;stroke-miterlimit:4;stroke-opacity:1;stroke-dasharray:none" id="path3110" d="m 82,13.999872 0,68.000256"/></g><g style="display:none" id="g3112"><path style="fill:none;stroke:#000;stroke-width:7.99999762;stroke-linecap:round;stroke-linejoin:round;stroke-miterlimit:4;stroke-opacity:1;stroke-dasharray:none" id="path3114" d="m 27.999931,48 c 56.000071,0 56.000071,0 56.000071,0"/><path id="path3116" d="M 43.99993,66.000001 C 23.99993,48 23.99993,48 23.99993,48 l 20,-18.000001" style="fill:none;stroke:#000;stroke-width:8;stroke-linecap:round;stroke-linejoin:round;stroke-miterlimit:4;stroke-opacity:1;stroke-dasharray:none"/><path id="path3118" d="m 14.000001,82.000128 0,-68.000256" style="fill:none;stroke:#000;stroke-width:12.00000095;stroke-linecap:round;stroke-linejoin:round;stroke-miterlimit:4;stroke-opacity:1;stroke-dasharray:none"/></g><g id="layer1" style="display:none"><path style="display:inline" id="path3-4" d="m 26.000001,40 c 2.039366,0 3.693084,1.748132 3.699621,3.910841 l 0,34.741523 11.987818,-12.672226 c 1.444553,-1.527024 3.784594,-1.527024 5.229147,0 1.444551,1.527024 1.444551,4.000664 0,5.527688 l -18.302012,19.34691 c -1.444553,1.527019 -3.784595,1.527019 -5.229147,0 L 5.0834144,71.507826 c -1.4445526,-1.527024 -1.4445526,-4.000665 0,-5.527689 1.4445516,-1.527024 3.7845932,-1.527024 5.2291466,0 l 11.987818,12.672226 0,-34.741523 C 22.300379,41.755041 23.960633,40 26.000001,40 z"/><path id="path3" d="m 40,26 c 0,-2.039367 1.748132,-3.693085 3.910841,-3.699622 l 34.741523,0 -12.672226,-11.987817 c -1.527024,-1.444554 -1.527024,-3.784596 0,-5.2291472 1.527024,-1.4445519 4.000664,-1.4445517 5.527688,1e-7 l 19.34691,18.3020121 c 1.527019,1.444553 1.527019,3.784596 0,5.229147 l -19.34691,18.302013 c -1.527024,1.444553 -4.000665,1.444553 -5.527689,0 -1.527024,-1.444551 -1.527024,-3.784593 0,-5.229146 l 12.672226,-11.987819 -34.741523,0 C 41.755041,29.699621 40,28.039367 40,26 z"/><rect style="fill:none;stroke:#000;stroke-width:8;stroke-linecap:round;stroke-linejoin:round;stroke-miterlimit:4;stroke-opacity:1;stroke-dasharray:none;stroke-dashoffset:1.6" id="rect4278" width="28" height="28" x="12" y="12" ry="3.231"/></g><g style="display:none" id="g4801"><rect style="fill:none;stroke:#000;stroke-width:8;stroke-linecap:round;stroke-linejoin:round;stroke-miterlimit:4;stroke-opacity:1;stroke-dasharray:none;stroke-dashoffset:1.6" id="rect4803" width="80" height="80" x="8" y="8" ry="8.78"/><rect style="fill:#000;fill-opacity:1;stroke:#000;stroke-width:7.99999952;stroke-linecap:round;stroke-linejoin:round;stroke-miterlimit:4;stroke-opacity:1;stroke-dasharray:none;stroke-dashoffset:1.6" id="rect4805" width="24" height="24" x="24" y="48" ry="2.571"/><path style="fill:none;stroke:#000;stroke-width:5.99999952;stroke-linecap:round;stroke-linejoin:round;stroke-miterlimit:4;stroke-opacity:1;stroke-dasharray:none" id="path4807" d="M 49,47 C 71,25 71,25 71,25"/><path style="fill:none;stroke:#000;stroke-width:6;stroke-linecap:round;stroke-linejoin:round;stroke-miterlimit:4;stroke-opacity:1;stroke-dasharray:none" id="path4809" d="M 73,41 C 73,23 73,23 73,23 L 55,23"/></g><g id="g5202" style="display:none"><rect id="rect5204" width="80" height="80" x="8" y="8" ry="8.78" style="fill:none;stroke:#000;stroke-width:8;stroke-linecap:round;stroke-linejoin:round;stroke-miterlimit:4;stroke-opacity:1;stroke-dasharray:none;stroke-dashoffset:1.6"/><rect id="rect5206" width="24" height="24" x="24" y="48" ry="2.571" style="fill:#000;fill-opacity:1;stroke:#000;stroke-width:7.99999952;stroke-linecap:round;stroke-linejoin:round;stroke-miterlimit:4;stroke-opacity:1;stroke-dasharray:none;stroke-dashoffset:1.6"/><path id="path5208" d="M 73.000001,23 C 53,43 53,43 53,43" style="fill:none;stroke:#000;stroke-width:6;stroke-linecap:round;stroke-linejoin:round;stroke-miterlimit:4;stroke-opacity:1;stroke-dasharray:none"/><path id="path5210" d="m 51,27 c 0,18 0,18 0,18 l 18,0" style="fill:none;stroke:#000;stroke-width:6;stroke-linecap:round;stroke-linejoin:round;stroke-miterlimit:4;stroke-opacity:1;stroke-dasharray:none"/></g><g id="g4186" style="display:none"><rect id="rect4188" width="80" height="80" x="8" y="8" ry="8.78" style="fill:none;stroke:#000;stroke-width:8;stroke-linecap:round;stroke-linejoin:round;stroke-miterlimit:4;stroke-opacity:1;stroke-dasharray:none;stroke-dashoffset:1.6"/><rect id="rect4190" width="28" height="28" x="24" y="44" ry="3" style="fill:#000;fill-opacity:1;stroke:#000;stroke-width:8;stroke-linecap:round;stroke-linejoin:round;stroke-miterlimit:4;stroke-opacity:1;stroke-dasharray:none;stroke-dashoffset:1.6"/><path id="path4192" d="M 50.999999,44.999999 C 70.999999,25 70.999999,25 70.999999,25" style="fill:none;stroke:#000;stroke-width:6;stroke-linecap:round;stroke-linejoin:round;stroke-miterlimit:4;stroke-opacity:1;stroke-dasharray:none"/><path id="path4194" d="M 73,41 C 73,23 73,23 73,23 L 55,23" style="fill:none;stroke:#000;stroke-width:6;stroke-linecap:round;stroke-linejoin:round;stroke-miterlimit:4;stroke-opacity:1;stroke-dasharray:none"/></g><g style="display:none" id="g5353"><rect style="fill:none;stroke:#000;stroke-width:8;stroke-linecap:round;stroke-linejoin:round;stroke-miterlimit:4;stroke-opacity:1;stroke-dasharray:none;stroke-dashoffset:1.6" id="rect5355" width="80" height="80" x="8" y="8" ry="8.78"/><rect style="fill:#000;fill-opacity:1;stroke:#000;stroke-width:8;stroke-linecap:round;stroke-linejoin:round;stroke-miterlimit:4;stroke-opacity:1;stroke-dasharray:none;stroke-dashoffset:1.6" id="rect5357" width="28" height="28" x="24" y="44" ry="3"/><path style="fill:none;stroke:#000;stroke-width:6;stroke-linecap:round;stroke-linejoin:round;stroke-miterlimit:4;stroke-opacity:1;stroke-dasharray:none" id="path5359" d="m 73.000001,23 c -18,17.999999 -18,17.999999 -18,17.999999"/><path style="fill:none;stroke:#000;stroke-width:6;stroke-linecap:round;stroke-linejoin:round;stroke-miterlimit:4;stroke-opacity:1;stroke-dasharray:none" id="path5361" d="m 55,23 c 0,18 0,18 0,18 l 18,0"/></g><g style="display:none" id="g3123"><rect style="fill:#000;fill-opacity:1;stroke:#000;stroke-width:7.99999857;stroke-linecap:round;stroke-linejoin:round;stroke-miterlimit:4;stroke-opacity:1;stroke-dasharray:none;stroke-dashoffset:1.6" id="rect3127" width="36" height="36" x="-84" y="-48" ry="3.857" transform="scale(-1,-1)"/><path style="fill:none;stroke:#000;stroke-width:7.99999952;stroke-linecap:round;stroke-linejoin:round;stroke-miterlimit:4;stroke-opacity:1;stroke-dasharray:none" id="path3129" d="M 12,83.999996 C 40.000001,55.999997 40.000001,55.999997 40.000001,55.999997"/><path style="fill:none;stroke:#000;stroke-width:8.00000095;stroke-linecap:round;stroke-linejoin:round;stroke-miterlimit:4;stroke-opacity:1;stroke-dasharray:none" id="path3131" d="m 44.000001,80 c 0,-28 0,-28 0,-28 L 16,52"/></g><g id="g3113" style="display:none"><rect id="rect3117" width="36" height="36" x="-84" y="-48" ry="3.857" transform="scale(-1,-1)" style="fill:#000;fill-opacity:1;stroke:#000;stroke-width:8;stroke-linecap:round;stroke-linejoin:round;stroke-miterlimit:4;stroke-opacity:1;stroke-dasharray:none;stroke-dashoffset:1.6"/><path id="path3119" d="M 48,47.999998 C 16,80 16,80 16,80" style="fill:none;stroke:#000;stroke-width:8;stroke-linecap:round;stroke-linejoin:round;stroke-miterlimit:4;stroke-opacity:1;stroke-dasharray:none"/><path id="path3121" d="m 12,56 c 0,28 0,28 0,28 l 28,0" style="fill:none;stroke:#000;stroke-width:7.99999952;stroke-linecap:round;stroke-linejoin:round;stroke-miterlimit:4;stroke-opacity:1;stroke-dasharray:none"/></g><g id="g8714" style="display:none"><rect style="fill:#000;fill-opacity:1;fill-rule:nonzero;stroke:#000;stroke-width:6;stroke-linecap:round;stroke-linejoin:round;stroke-miterlimit:4;stroke-opacity:1;stroke-dasharray:none;stroke-dashoffset:1.6;display:inline" id="rect9869" width="42" height="14" x="27" y="19" rx="4.578" ry="3.51"/><rect style="fill:#000;fill-opacity:1;stroke:#000;stroke-width:6.00000048;stroke-linecap:round;stroke-linejoin:round;stroke-miterlimit:4;stroke-opacity:1;stroke-dasharray:none;stroke-dashoffset:1.6;display:inline" id="rect9845" width="82" height="46" x="7" y="31" rx="5.014" ry="5.014"/><path style="fill:none;stroke:#fff;stroke-width:3.72409511;stroke-miterlimit:4;stroke-opacity:1;stroke-dasharray:none;display:inline" id="path9681" d="M 23,13 A 8.5,8 0 1 1 6,13 8.5,8 0 1 1 23,13 z" transform="matrix(1.8235294,0,0,1.9375002,21.558824,28.812497)"/></g><g id="layer3" style="display:none"><rect style="fill:red;fill-opacity:1;fill-rule:nonzero;stroke:none" id="rect4421" width="88" height="8" x="4" y="34" rx="2.804" ry=".667"/><path id="path5-0" d="M 4,73.937501 C 4,77.166667 7.4925,80 11.755,80 H 84.9875 C 89.25,80 92,77.166667 92,73.937501 V 40 H 4 v 33.937501 z"/><path id="path7-3" d="m 92,31 c 0,-3.875 -2.75,-7 -7.0125,-7 0,0 -42.5425,0 -45.925,0 C 37.77,24 36.12,21.525 33.975,19.25 32.0225,17.175 29.9325,16 28.3375,16 26.275,16 11.755,16 11.755,16 7.4925,16 4,18.225 4,22.075 L 4,36 92,36 z"/></g><g style="display:none" id="g11448"><rect id="rect11450" width="42" height="12" x="27" y="19" rx="4" ry="4" style="fill:#000;fill-opacity:1;fill-rule:nonzero;stroke:#000;stroke-width:6;stroke-linecap:round;stroke-linejoin:round;stroke-miterlimit:4;stroke-opacity:1;stroke-dasharray:none;stroke-dashoffset:1.6;display:inline"/><path id="path11454" d="M 48,34.867185 C 37.712468,34.867185 29.080883,43.36797 29.080883,54 29.080883,64.63203 37.712468,73.132814 48,73.132814 58.287533,73.132814 66.919118,64.63203 66.919118,54 66.919118,43.36797 58.287533,34.867185 48,34.867185 z m 0,7.265626 c 6.833294,0 12.080883,5.378389 12.080883,11.867189 0,6.488798 -5.247589,11.867188 -12.080883,11.867188 -6.833295,0 -12.080882,-5.37839 -12.080882,-11.867188 0,-6.4888 5.247587,-11.867189 12.080882,-11.867189 z M 13,28 83,28 c 4.986,0 9,4.014 9,9 l 0,34 c 0,4.986 -4.014,9 -9,9 L 13,80 C 8.0140005,80 4.0000005,75.986 4.0000005,71 l 0,-34 c 0,-4.986 4.014,-9 8.9999995,-9 z" style="font-size:medium;font-style:normal;font-variant:normal;font-weight:400;font-stretch:normal;text-indent:0;text-align:start;text-decoration:none;line-height:normal;letter-spacing:normal;word-spacing:normal;text-transform:none;direction:ltr;block-progression:tb;writing-mode:lr-tb;text-anchor:start;baseline-shift:baseline;color:#000;fill:#000;fill-opacity:1;stroke:none;stroke-width:3.72409511;marker:none;visibility:visible;display:inline;overflow:visible;enable-background:accumulate;font-family:Sans;-inkscape-font-specification:Sans"/></g><g id="g5470" style="display:none"><path id="path5472" d="m 66,46 a 28,28 0 1 1 -56,0 28,28 0 1 1 56,0 z" transform="translate(-2.0000003,-10.000001)" style="fill:none;stroke:#000;stroke-width:7.99999952;stroke-linecap:round;stroke-miterlimit:4;stroke-opacity:1;stroke-dasharray:none"/><path id="path5474" d="M 88,87.999999 C 56,55.39701 56,56.000768 56,56.000768" style="fill:none;stroke:#000;stroke-width:8;stroke-linecap:round;stroke-linejoin:round;stroke-miterlimit:4;stroke-opacity:1;stroke-dasharray:none"/></g><g style="display:none" id="g5588"><path id="path5590" d="m 66,46 a 28,28 0 1 1 -56,0 28,28 0 1 1 56,0 z" transform="matrix(0.92857143,0,0,0.92857143,-1.2857144,-8.714286)" style="fill:none;stroke:#000;stroke-width:8.6153841;stroke-linecap:round;stroke-miterlimit:4;stroke-opacity:1;stroke-dasharray:none"/><path id="path5592" d="M 88,87.999999 C 54,53.359323 54,54.000816 54,54.000816" style="fill:none;stroke:#000;stroke-width:8;stroke-linecap:round;stroke-linejoin:round;stroke-miterlimit:4;stroke-opacity:1;stroke-dasharray:none"/></g><g id="layer5" style="display:none"><path id="path3-7" d="M 80,4 H 68 c -2.209,0 -4,1.791 -4,4 0,2.209 1.791,4 4,4 h 12 c 2.21,0 4,1.79 4,4 v 12 c 0,2.209 1.791,4 4,4 2.209,0 4,-1.791 4,-4 V 16 C 92,9.373 86.627,4 80,4 z"/><path id="path5" d="M 28,4 H 16 C 9.373,4 4,9.373 4,16 v 12 c 0,2.209 1.791,4 4,4 2.209,0 4,-1.791 4,-4 V 16 c 0,-2.21 1.79,-4 4,-4 h 12 c 2.209,0 4,-1.791 4,-4 0,-2.209 -1.791,-4 -4,-4 z"/><path id="path7" d="m 88,64 c -2.209,0 -4,1.791 -4,4 v 12 c 0,2.21 -1.79,4 -4,4 H 68 c -2.209,0 -4,1.791 -4,4 0,2.209 1.791,4 4,4 h 12 c 6.627,0 12,-5.373 12,-12 V 68 c 0,-2.209 -1.791,-4 -4,-4 z"/><path id="path9" d="M 28,84 H 16 c -2.21,0 -4,-1.79 -4,-4 V 68 c 0,-2.209 -1.791,-4 -4,-4 -2.209,0 -4,1.791 -4,4 v 12 c 0,6.627 5.373,12 12,12 h 12 c 2.209,0 4,-1.791 4,-4 0,-2.209 -1.791,-4 -4,-4 z"/></g><g style="display:inline" id="g4423"><path id="path4425" d="M 80,4 H 68 c -2.209,0 -4,1.791 -4,4 0,2.209 1.791,4 4,4 h 12 c 2.21,0 4,1.79 4,4 v 12 c 0,2.209 1.791,4 4,4 2.209,0 4,-1.791 4,-4 V 16 C 92,9.373 86.627,4 80,4 z"/><path id="path4427" d="M 28,4 H 16 C 9.373,4 4,9.373 4,16 v 12 c 0,2.209 1.791,4 4,4 2.209,0 4,-1.791 4,-4 V 16 c 0,-2.21 1.79,-4 4,-4 h 12 c 2.209,0 4,-1.791 4,-4 0,-2.209 -1.791,-4 -4,-4 z"/><path id="path4429" d="m 88,64 c -2.209,0 -4,1.791 -4,4 v 12 c 0,2.21 -1.79,4 -4,4 H 68 c -2.209,0 -4,1.791 -4,4 0,2.209 1.791,4 4,4 h 12 c 6.627,0 12,-5.373 12,-12 V 68 c 0,-2.209 -1.791,-4 -4,-4 z"/><path id="path4431" d="M 28,84 H 16 c -2.21,0 -4,-1.79 -4,-4 V 68 c 0,-2.209 -1.791,-4 -4,-4 -2.209,0 -4,1.791 -4,4 v 12 c 0,6.627 5.373,12 12,12 h 12 c 2.209,0 4,-1.791 4,-4 0,-2.209 -1.791,-4 -4,-4 z"/><rect id="rect4433" width="48" height="32" x="24" y="32" ry="10" style="fill:#000;fill-opacity:1;stroke:none"/></g></svg>