<svg xmlns="http://www.w3.org/2000/svg" xmlns:svg="http://www.w3.org/2000/svg" id="svg2" width="16" height="16" version="1.1"><metadata id="metadata7"/><g id="layer1" transform="translate(0,-1036.3622)" style="display:none"><path id="path2987" d="m 3,1049.3622 c 3.1666667,-3.1667 6.3333333,-6.3333 9.5,-9.5" style="fill:none;stroke:#118f11;stroke-width:2;stroke-linecap:round;stroke-linejoin:round;stroke-miterlimit:4;stroke-opacity:1;stroke-dasharray:none"/><path id="path2989" d="m 13,1044.3622 c 0,-1.6667 0,-3.3333 0,-5 -1.666667,0 -3.3333333,0 -5,0" style="fill:none;stroke:#118f11;stroke-width:2;stroke-linecap:round;stroke-linejoin:miter;stroke-miterlimit:4;stroke-opacity:1;stroke-dasharray:none"/></g><g id="g4280" transform="translate(0,-1036.3622)" style="display:none"><path style="fill:none;stroke:#a00000;stroke-width:2;stroke-linecap:round;stroke-linejoin:round;stroke-miterlimit:4;stroke-opacity:1;stroke-dasharray:none" id="path4282" d="m 3,1049.3622 c 3.1666667,-3.1667 6.3333333,-6.3333 9.5,-9.5"/><path style="fill:none;stroke:#a00000;stroke-width:2;stroke-linecap:round;stroke-linejoin:miter;stroke-miterlimit:4;stroke-opacity:1;stroke-dasharray:none" id="path4284" d="m 13,1044.3622 c 0,-1.6667 0,-3.3333 0,-5 -1.666667,0 -3.3333333,0 -5,0"/></g><g style="display:inline" id="g4279" transform="translate(0,-1036.3622)"><path style="fill:none;stroke:#114c8f;stroke-width:2;stroke-linecap:round;stroke-linejoin:round;stroke-miterlimit:4;stroke-opacity:1;stroke-dasharray:none" id="path4283" d="m 13,1039.3622 c -3.1666667,3.1667 -6.3333333,6.3333 -9.5,9.5"/><path style="fill:none;stroke:#114c8f;stroke-width:2;stroke-linecap:round;stroke-linejoin:miter;stroke-miterlimit:4;stroke-opacity:1;stroke-dasharray:none" id="path4285" d="m 3,1044.3622 c 0,1.6667 0,3.3333 0,5 1.666667,0 3.3333333,0 5,0"/></g><g id="g4303" transform="translate(0,-1036.3622)" style="display:none"><path id="path4305" d="m 13,1039.3622 c -3.1666667,3.1667 -6.3333333,6.3333 -9.5,9.5" style="fill:none;stroke:#a00000;stroke-width:2;stroke-linecap:round;stroke-linejoin:round;stroke-miterlimit:4;stroke-opacity:1;stroke-dasharray:none"/><path id="path4307" d="m 3,1044.3622 c 0,1.6667 0,3.3333 0,5 1.666667,0 3.3333333,0 5,0" style="fill:none;stroke:#a00000;stroke-width:2;stroke-linecap:round;stroke-linejoin:miter;stroke-miterlimit:4;stroke-opacity:1;stroke-dasharray:none"/></g></svg>