<svg xmlns="http://www.w3.org/2000/svg" xmlns:svg="http://www.w3.org/2000/svg" id="svg4157" width="16" height="16" version="1.1"><metadata id="metadata4162"/><g style="display:inline" id="g4922" transform="translate(0,-1036.3622)"><path id="path4924" d="m 2.7,1047.6622 5.2999994,-5.6 5.3000006,5.6" style="fill:none;stroke:#727272;stroke-width:2.4000001;stroke-linecap:round;stroke-linejoin:round;stroke-miterlimit:4;stroke-opacity:1;stroke-dasharray:none"/><path id="path4926" d="m 2.7000001,1046.6622 5.2999992,-5.6 5.3000007,5.6" style="fill:none;stroke:#c6c6c6;stroke-width:2.4000001;stroke-linecap:round;stroke-linejoin:round;stroke-miterlimit:4;stroke-opacity:1;stroke-dasharray:none"/></g><g id="g5036" transform="translate(0,-1036.3622)" style="display:none"><path style="fill:none;stroke:#727272;stroke-width:2.4000001;stroke-linecap:round;stroke-linejoin:round;stroke-miterlimit:4;stroke-opacity:1;stroke-dasharray:none" id="path5038" d="m 2.7,1043.0622 5.2999994,5.6 5.3000006,-5.6"/><path style="fill:none;stroke:#c6c6c6;stroke-width:2.4000001;stroke-linecap:round;stroke-linejoin:round;stroke-miterlimit:4;stroke-opacity:1;stroke-dasharray:none" id="path5040" d="m 2.7000001,1042.0622 5.2999992,5.6 5.3000007,-5.6"/></g><g id="g5042" transform="translate(0,-1036.3622)" style="display:none"><path style="fill:none;stroke:#727272;stroke-width:2.4000001;stroke-linecap:round;stroke-linejoin:round;stroke-miterlimit:4;stroke-opacity:1;stroke-dasharray:none" id="path5044" d="m 9.8,1050.1622 -5.6,-5.3 5.6,-5.3"/><path style="fill:none;stroke:#c6c6c6;stroke-width:2.4000001;stroke-linecap:round;stroke-linejoin:round;stroke-miterlimit:4;stroke-opacity:1;stroke-dasharray:none" id="path5046" d="m 9.8,1049.1622 -5.6,-5.3 5.6,-5.3"/></g><g style="display:none" id="g5054" transform="translate(0,-1036.3622)"><path id="path5056" d="m 6.2,1050.1622 5.6,-5.3 -5.6,-5.3" style="fill:none;stroke:#727272;stroke-width:2.4000001;stroke-linecap:round;stroke-linejoin:round;stroke-miterlimit:4;stroke-opacity:1;stroke-dasharray:none"/><path id="path5058" d="m 6.2,1049.1622 5.6,-5.3 -5.6,-5.3" style="fill:none;stroke:#c6c6c6;stroke-width:2.4000001;stroke-linecap:round;stroke-linejoin:round;stroke-miterlimit:4;stroke-opacity:1;stroke-dasharray:none"/></g><g id="g4751" transform="translate(0,-1036.3622)" style="display:none"><path style="fill:none;stroke:#727272;stroke-width:2.4000001;stroke-linecap:round;stroke-linejoin:round;stroke-miterlimit:4;stroke-opacity:1;stroke-dasharray:none" id="path4753" d="m 2.6999999,1047.9122 5.299999,-5.6 5.3000001,5.6"/><path style="fill:none;stroke:#c6c6c6;stroke-width:2.4000001;stroke-linecap:round;stroke-linejoin:round;stroke-miterlimit:4;stroke-opacity:1;stroke-dasharray:none" id="path4755" d="m 2.7000004,1046.4122 5.2999994,-5.6 5.3000002,5.6"/></g></svg>