<svg xmlns="http://www.w3.org/2000/svg" xmlns:svg="http://www.w3.org/2000/svg" id="svg4429" width="12" height="12" version="1.1"><metadata id="metadata4434"/><g id="layer1" transform="translate(0,-4)" style="display:inline"><path style="fill:#333;fill-opacity:1;stroke:#333;stroke-linecap:round;stroke-linejoin:round;stroke-opacity:1" id="path4967" d="m 9.5,5.5 0,9 -4,-2.5 -3,0 0,-4 3,0 z"/></g><g id="layer6" style="display:none"><path style="fill:#333;fill-opacity:1;fill-rule:nonzero;stroke:none" id="path6252" d="M 2.5000001,6 A 2,2 0 1 1 2.5,2" transform="matrix(1.5,0,0,1.5,0.25,1.5)"/><path style="fill:#333;fill-opacity:1;fill-rule:nonzero;stroke:none" id="path6252-6" d="M 2.5000001,6 A 2,2 0 1 1 2.5,2" transform="matrix(-1.5,0,0,1.5,11.75,1.5)"/><path style="font-size:medium;font-style:normal;font-variant:normal;font-weight:400;font-stretch:normal;text-indent:0;text-align:start;text-decoration:none;line-height:normal;letter-spacing:normal;word-spacing:normal;text-transform:none;direction:ltr;block-progression:tb;writing-mode:lr-tb;text-anchor:start;baseline-shift:baseline;color:#000;fill:#333;fill-opacity:1;stroke:none;stroke-width:.81167948;marker:none;visibility:visible;display:inline;overflow:visible;enable-background:accumulate;font-family:Sans;-inkscape-font-specification:Sans" id="path6252-6-5" d="M 2.9921875,4.7961672 C 2.9921875,2.8487005 4.345123,1.4999999 6,1.5 7.654877,1.5 9.0078125,2.8487005 9.0078125,4.7961672 L 8,4.7961672 C 8,3.4939779 7.1065468,2.5 6,2.5 4.8934533,2.5 4,3.4939779 4,4.7961672 z"/></g></svg>