<svg xmlns="http://www.w3.org/2000/svg" xmlns:svg="http://www.w3.org/2000/svg" id="svg2985" width="16" height="16" version="1.1"><metadata id="metadata2990"/><g id="layer1" style="display:inline"><path style="fill:red;fill-opacity:1;fill-rule:nonzero;stroke:#960000;stroke-width:.49999997;stroke-linecap:round;stroke-linejoin:round;stroke-miterlimit:4;stroke-opacity:1;stroke-dasharray:none;stroke-dashoffset:0" id="path4150" d="m 5.1124169,4.9616358 -0.1266697,4.121095 c -0.080528,2.6199362 -3.7357468,2.2553372 -3.7357468,3.7145002 0,0.775939 0,0.799347 0,0.799347 l 5.6280148,0 0,1.153422 c 0.9021156,0 1.3281238,0 2.2302394,0 l 0.035808,-1.153422 5.6059374,0 0,-0.799347 c -5e-6,-1.485497 -3.622092,-1.08994 -3.718901,-3.7145002 L 10.87909,4.9616358 C 10.873706,4.8156516 10.715466,1.25 8.0084204,1.25 5.3013751,1.25 5.1169047,4.8156308 5.1124169,4.9616358 z"/><rect style="fill:#640000;fill-opacity:1;fill-rule:nonzero;stroke:none" id="rect4033" width="19.445" height=".85" x="1.589" y="-.453" ry=".425" transform="matrix(0.70538114,0.70882822,-0.75948013,0.6505305,0,0)"/></g><g style="display:none" id="g4048"><path style="fill:#3c3c3c;fill-opacity:1;fill-rule:nonzero;stroke:#000;stroke-width:.49999997;stroke-linecap:round;stroke-linejoin:round;stroke-miterlimit:4;stroke-opacity:1;stroke-dasharray:none;stroke-dashoffset:0" id="path4050" d="m 5.1124169,4.9616358 -0.1266697,4.121095 c -0.080528,2.6199362 -3.7357468,2.2553372 -3.7357468,3.7145002 0,0.775939 0,0.799347 0,0.799347 l 5.6280148,0 0,1.153422 c 0.9021156,0 1.3281238,0 2.2302394,0 l 0.035808,-1.153422 5.6059374,0 0,-0.799347 c -5e-6,-1.485497 -3.622092,-1.08994 -3.718901,-3.7145002 L 10.87909,4.9616358 C 10.873706,4.8156516 10.715466,1.25 8.0084204,1.25 5.3013751,1.25 5.1169047,4.8156308 5.1124169,4.9616358 z"/><rect id="rect4052" width="19.445" height=".85" x="1.589" y="-.453" ry=".425" transform="matrix(0.70538114,0.70882822,-0.75948013,0.6505305,0,0)" style="fill:#000;fill-opacity:1;fill-rule:nonzero;stroke:none"/></g><g style="display:none" id="g3004"><path style="fill:red;fill-opacity:1;fill-rule:nonzero;stroke:#960000;stroke-width:.69999999;stroke-linecap:round;stroke-linejoin:round;stroke-miterlimit:4;stroke-opacity:1;stroke-dasharray:none;stroke-dashoffset:0" id="path3006" d="M 5.5829856,4.9567763 5.4769584,8.4062854 C 5.4095534,10.599267 2.35,10.294088 2.35,11.515461 c 0,0.649489 0,0.669082 0,0.669082 l 4.7108569,0 0,0.965457 c 0.7551042,0 1.1116888,0 1.866793,0 l 0.029973,-0.965457 4.6923771,0 0,-0.669082 c -4e-6,-1.243419 -3.031825,-0.912321 -3.112859,-3.1091756 L 10.409904,4.9567763 c -0.0045,-0.1221938 -0.136959,-3.1067764 -2.4028561,-3.1067764 -2.2658973,0 -2.4203057,2.9845649 -2.4240623,3.1067764 z"/><rect style="fill:#640000;fill-opacity:1;fill-rule:nonzero;stroke:none;display:inline" id="rect3008" width="16.917" height=".754" x="2.304" y="-2.865" ry=".377" transform="matrix(0.53545009,0.84456687,-0.89892197,0.43810877,0,0)"/></g><g id="g4054" style="display:inline"><path id="path4056" d="M 5.5829856,4.9567763 5.4769584,8.4062854 C 5.4095534,10.599267 2.35,10.294088 2.35,11.515461 c 0,0.649489 0,0.669082 0,0.669082 l 4.7108569,0 0,0.965457 c 0.7551042,0 1.1116888,0 1.866793,0 l 0.029973,-0.965457 4.6923771,0 0,-0.669082 c -4e-6,-1.243419 -3.031825,-0.912321 -3.112859,-3.1091756 L 10.409904,4.9567763 c -0.0045,-0.1221938 -0.136959,-3.1067764 -2.4028561,-3.1067764 -2.2658973,0 -2.4203057,2.9845649 -2.4240623,3.1067764 z" style="fill:#505050;fill-opacity:1;fill-rule:nonzero;stroke:#000;stroke-width:.69999999;stroke-linecap:round;stroke-linejoin:round;stroke-miterlimit:4;stroke-opacity:1;stroke-dasharray:none;stroke-dashoffset:0"/><rect id="rect4052-4" width="16.917" height=".754" x="2.304" y="-2.865" ry=".377" transform="matrix(0.53545009,0.84456687,-0.89892197,0.43810877,0,0)" style="fill:#000;fill-opacity:1;fill-rule:nonzero;stroke:none;display:inline"/></g><g id="layer2" style="display:none"><path id="path4024" d="M 5.4251225,4.7365718 5.3124987,9.162933 c -0.071599,2.814006 -3.3077969,1.86858 -3.3077969,3.435829 0,0.833416 -0.027413,1.412377 -0.027413,1.412377 l 5.0176516,0 0,1.238861 c 0.8020833,0 1.1808531,0 1.982936,0 l 0.03184,-1.238861 4.9679456,0 0.03274,-1.412377 c -5e-6,-1.595534 -3.236821,-0.616857 -3.322896,-3.435829 L 10.55235,4.7365718 C 10.547563,4.579774 10.40687,0.75 7.9999989,0.75 5.5931278,0.75 5.4291127,4.5797517 5.4251225,4.7365718 z" style="fill:#0582ff;fill-opacity:1;fill-rule:nonzero;stroke:#000;stroke-width:.49999997;stroke-linecap:round;stroke-linejoin:round;stroke-miterlimit:4;stroke-opacity:.74509804;stroke-dasharray:none;stroke-dashoffset:0;display:inline"/></g></svg>