<svg xmlns="http://www.w3.org/2000/svg" xmlns:svg="http://www.w3.org/2000/svg" id="svg2988" width="16" height="16" version="1.1"><metadata id="metadata2993"/><g id="layer1" style="display:inline"><path style="fill:#333;fill-opacity:1;fill-rule:nonzero;stroke:none" id="path2998" d="M 14,6.5882931 C 14,7.5320759 13.406848,8.5048171 12.249616,8.9431914 10.557783,9.5840794 10.304318,9.7333417 9.1110382,10.32531 8.5069536,10.624987 8.1881388,10.952161 7.4366066,11.460562 6.7599963,11.91828 3.362662,13.59858 4.1314838,12.414688 4.4923817,11.858949 4.9823872,10.699689 4.7200548,9.8692848 4.5901477,9.4580689 4.0288058,9.1596229 3.7573596,9.0050006 2.6715732,8.3865117 1.9999999,7.5320759 1.9999999,6.5882931 c 0,-1.887566 2.6862916,-3.4177407 6.0000006,-3.4177407 C 11.313708,3.1705524 14,4.7007271 14,6.5882931 z"/></g><g style="display:none" id="g2990"><path id="path2992" d="M 14,6.5882929 C 14,7.5320757 13.406848,8.5048169 12.249616,8.9431912 10.557783,9.5840792 10.304318,9.7333415 9.1110383,10.32531 8.5069536,10.624987 8.1881389,10.952161 7.4366066,11.460562 6.7599963,11.91828 3.362662,13.59858 4.1314838,12.414688 4.4923817,11.858949 4.9823872,10.699689 4.7200548,9.8692846 4.5901477,9.4580687 4.0288058,9.1596227 3.7573597,9.0050004 2.6715733,8.3865115 1.9999999,7.5320757 1.9999999,6.5882929 c 0,-1.887566 2.6862917,-3.4177407 6.0000007,-3.4177407 C 11.313708,3.1705522 14,4.7007269 14,6.5882929 z" style="fill:#4c4c4c;fill-opacity:1;fill-rule:nonzero;stroke:#222;stroke-width:1;stroke-linecap:round;stroke-linejoin:round;stroke-miterlimit:4;stroke-opacity:1;stroke-dasharray:none"/></g></svg>