<svg xmlns="http://www.w3.org/2000/svg" xmlns:svg="http://www.w3.org/2000/svg" id="svg2" width="12" height="12" version="1.1"><metadata id="metadata7"/><g style="display:inline" id="g3931" transform="translate(0,-1040.3622)"><path id="path3933" d="m 6.9686747,2.5 a 3.4686747,3.4686747 0 1 1 -6.93734936,0 3.4686747,3.4686747 0 1 1 6.93734936,0 z" transform="matrix(1.268496,0,0,1.268496,1.560264,1043.191)" style="fill:none;stroke:#272727;stroke-width:.94600224;stroke-linecap:round;stroke-linejoin:round;stroke-miterlimit:4;stroke-opacity:1;stroke-dasharray:none;stroke-dashoffset:1.6"/><path style="fill:#272727;fill-opacity:1;stroke:#272727;stroke-width:.5;stroke-linecap:round;stroke-linejoin:round;stroke-miterlimit:4;stroke-opacity:1;stroke-dasharray:none;stroke-dashoffset:1.6" id="path3935" d="m 5,4.5 a 0.5,0.5 0 1 1 -1,0 0.5,0.5 0 1 1 1,0 z" transform="matrix(2,0,0,2,-3,1037.3622)"/></g><g id="g4117" transform="translate(0,-1040.3622)" style="display:none"><path style="fill:none;stroke:#272727;stroke-width:.94600224;stroke-linecap:round;stroke-linejoin:round;stroke-miterlimit:4;stroke-opacity:1;stroke-dasharray:none;stroke-dashoffset:1.6" id="path4119" d="m 6.9686747,2.5 a 3.4686747,3.4686747 0 1 1 -6.93734936,0 3.4686747,3.4686747 0 1 1 6.93734936,0 z" transform="matrix(1.268496,0,0,1.268496,1.560264,1043.191)"/><path style="fill:#272727;fill-opacity:1;stroke:none;display:inline" id="path4119-4" d="M 3.5,-0.96867466 A 3.4686747,3.4686747 0 0 1 5.9527233,4.9527234 L 3.5,2.5 z" transform="matrix(1.268496,0,0,1.268496,1.560264,1043.191)"/></g><g style="display:none" id="g4210" transform="translate(0,-1040.3622)"><path id="path4212" d="m 6.9686747,2.5 a 3.4686747,3.4686747 0 1 1 -6.93734936,0 3.4686747,3.4686747 0 1 1 6.93734936,0 z" transform="matrix(1.268496,0,0,1.268496,1.560264,1043.191)" style="fill:none;stroke:#909090;stroke-width:.94600224;stroke-linecap:round;stroke-linejoin:round;stroke-miterlimit:4;stroke-opacity:1;stroke-dasharray:none;stroke-dashoffset:1.6"/></g></svg>