<svg xmlns="http://www.w3.org/2000/svg" xmlns:svg="http://www.w3.org/2000/svg" id="svg4992" width="12" height="12" version="1.1"><defs id="defs4994"><linearGradient id="linearGradient4490"><stop style="stop-color:#ac4500;stop-opacity:1" id="stop4492" offset="0"/><stop style="stop-color:#f60;stop-opacity:1" id="stop4494" offset="1"/></linearGradient><marker id="Arrow1Sstart" orient="auto" refX="0" refY="0" style="overflow:visible"><path id="path3872" d="M 0.0,0.0 L 5.0,-5.0 L -12.5,0.0 L 5.0,5.0 L 0.0,0.0 z" transform="scale(0.2) translate(6,0)" style="fill-rule:evenodd;stroke:#000;stroke-width:1pt"/></marker></defs><metadata id="metadata4997"/><g id="layer1" transform="translate(0,-4)" style="display:none"><path style="fill:none;stroke:#0c0;stroke-width:1;stroke-miterlimit:4;stroke-opacity:1;stroke-dasharray:none;stroke-dashoffset:1.6;marker-mid:none" id="path5518" d="m 10.5,8.8435585 c 0,0.1790482 -0.03148,0.3538582 -0.09142,0.5226927 -0.05994,0.168835 -0.148352,0.331694 -0.262209,0.486837 C 10.032515,10.008233 9.8932114,10.155664 9.7314751,10.293641 9.5697382,10.431621 9.3855695,10.560146 9.1819845,10.677481 8.9783956,10.794818 8.7553943,10.900962 8.5159928,10.994179 8.2765912,11.087395 8.0207893,11.167683 7.751603,11.233302 7.1619031,11.390385 4.761985,13.753789 4.2,13.749995 3.7184914,13.746743 4.8054231,11.338988 4.248397,11.233302 3.9792106,11.167683 3.7234088,11.087395 3.4840073,10.994179 3.2446057,10.900962 3.0216044,10.794818 2.8180195,10.677481 2.6144345,10.560146 2.4302658,10.431621 2.2685294,10.293641 2.1067929,10.155664 1.9674885,10.008233 1.8536323,9.8530882 1.7397761,9.6979452 1.651368,9.5350862 1.591424,9.3662512 1.53148,9.1974167 1.5,9.0226067 1.5,8.8435585 1.5,8.6645117 1.53148,8.4897004 1.591424,8.3208658 1.651368,8.1520313 1.7397761,7.9891736 1.8536323,7.8340289 1.9674885,7.6788843 2.1067929,7.5314538 2.2685294,7.3934756 2.4302658,7.2554974 2.6144345,7.1269716 2.8180195,7.009636 3.0216044,6.8923005 3.2446057,6.7861555 3.4840073,6.6929394 3.7234088,6.5997231 3.9792106,6.5194356 4.248397,6.453815 4.5175832,6.3881943 4.8001539,6.3372406 5.093093,6.3026922 5.3860322,6.2681436 5.6893398,6.2500003 6,6.2500003 c 0.3106602,0 0.6139678,0.018143 0.906907,0.052691 0.2929391,0.034549 0.5755098,0.085501 0.844696,0.1511228 0.2691863,0.065621 0.5249882,0.1459083 0.7643898,0.2391245 0.2394015,0.093217 0.4624028,0.1993612 0.6659877,0.3166967 0.203585,0.1173354 0.3877537,0.2458613 0.5494906,0.3838396 0.1617363,0.1379781 0.3010399,0.2854086 0.4148969,0.440553 0.113856,0.1551457 0.202264,0.3180034 0.262208,0.4868379 C 10.46852,8.4897004 10.5,8.6645117 10.5,8.8435585 z"/></g><g id="g3849" transform="translate(0,-4)" style="display:none"><path id="path3855" d="m 2.7279322,3.5840389 a 0.43530834,0.43530834 0 1 1 -1e-7,0 l 1e-7,0.4353083 z" transform="matrix(2.2972223,0,0,2.2972223,-4.2666667,0.766666)" style="fill:green;fill-opacity:1;fill-rule:nonzero;stroke:none"/><path id="path3857" d="m 2.7279322,3.5840389 a 0.43530834,0.43530834 0 1 1 -1e-7,0 l 1e-7,0.4353083 z" transform="matrix(2.2972223,0,0,2.2972223,-0.26666672,0.766666)" style="fill:green;fill-opacity:1;fill-rule:nonzero;stroke:none"/><path id="path3859" d="m 2.7279322,3.5840389 a 0.43530834,0.43530834 0 1 1 -1e-7,0 l 1e-7,0.4353083 z" transform="matrix(2.2972223,0,0,2.2972223,3.7333333,0.766666)" style="fill:green;fill-opacity:1;fill-rule:nonzero;stroke:none"/></g><g id="g4482" transform="translate(0,-4)" style="display:inline"><path id="path4484" d="m 2.7279322,3.5840389 a 0.43530834,0.43530834 0 1 1 -1e-7,0 l 1e-7,0.4353083 z" transform="matrix(2.2972223,0,0,2.2972223,-4.2666666,0.766666)" style="fill:#0c0;fill-opacity:1;fill-rule:nonzero;stroke:none"/><path id="path4486" d="m 2.7279322,3.5840389 a 0.43530834,0.43530834 0 1 1 -1e-7,0 l 1e-7,0.4353083 z" transform="matrix(2.2972223,0,0,2.2972223,-0.26666672,0.766666)" style="fill:#0c0;fill-opacity:1;fill-rule:nonzero;stroke:none"/><path id="path4488" d="m 2.7279322,3.5840389 a 0.43530834,0.43530834 0 1 1 -1e-7,0 l 1e-7,0.4353083 z" transform="matrix(2.2972223,0,0,2.2972223,3.7333333,0.766666)" style="fill:#0c0;fill-opacity:1;fill-rule:nonzero;stroke:none"/></g></svg>