<svg xmlns="http://www.w3.org/2000/svg" xmlns:svg="http://www.w3.org/2000/svg" id="svg2" width="12" height="12" version="1.1"><metadata id="metadata7"/><g style="display:none" id="g2992" transform="translate(0,-1040.3622)"><path style="fill:#272727;fill-opacity:1;stroke:#272727;stroke-width:.80000001;stroke-linecap:round;stroke-linejoin:round;stroke-miterlimit:4;stroke-opacity:1;stroke-dasharray:none;stroke-dashoffset:1.6;display:inline" id="path2994" d="m 5,4.5 a 0.5,0.5 0 1 1 -1,0 0.5,0.5 0 1 1 1,0 z" transform="matrix(1.6666666,0,0,1.6666666,-4.9999998,1042.3622)"/><path style="fill:#272727;fill-opacity:1;stroke:#272727;stroke-width:.80000001;stroke-linecap:round;stroke-linejoin:round;stroke-miterlimit:4;stroke-opacity:1;stroke-dasharray:none;stroke-dashoffset:1.6;display:inline" id="path3000" d="m 5,4.5 a 0.5,0.5 0 1 1 -1,0 0.5,0.5 0 1 1 1,0 z" transform="matrix(1.6666666,0,0,1.6666666,2.0000002,1035.3622)"/><path style="fill:#272727;fill-opacity:1;stroke:#272727;stroke-width:.80000001;stroke-linecap:round;stroke-linejoin:round;stroke-miterlimit:4;stroke-opacity:1;stroke-dasharray:none;stroke-dashoffset:1.6;display:inline" id="path3002" d="m 5,4.5 a 0.5,0.5 0 1 1 -1,0 0.5,0.5 0 1 1 1,0 z" transform="matrix(1.6666666,0,0,1.6666666,2.0000002,1042.3622)"/></g><g id="g4897" transform="translate(0,-1040.3622)" style="display:none"><path id="path4903" d="m 5,4.5 a 0.5,0.5 0 1 1 -1,0 0.5,0.5 0 1 1 1,0 z" transform="matrix(1.6666666,0,0,1.6666666,-4.9999998,1042.3622)" style="fill:#272727;fill-opacity:1;stroke:#272727;stroke-width:.80000001;stroke-linecap:round;stroke-linejoin:round;stroke-miterlimit:4;stroke-opacity:1;stroke-dasharray:none;stroke-dashoffset:1.6;display:inline"/><path style="fill:none;stroke:#272727;stroke-width:1.20000005;stroke-linecap:round;stroke-linejoin:round;stroke-miterlimit:4;stroke-opacity:1;stroke-dasharray:none;display:inline" id="path5064-9" d="m 3,1049.8622 6,0"/><path style="fill:none;stroke:#272727;stroke-width:1.20000005;stroke-linecap:round;stroke-linejoin:round;stroke-miterlimit:4;stroke-opacity:1;stroke-dasharray:none" id="path5064" d="m 9.4999999,1043.3622 0,6"/><path id="path4901" d="m 5,4.5 a 0.5,0.5 0 1 1 -1,0 0.5,0.5 0 1 1 1,0 z" transform="matrix(1.6666666,0,0,1.6666666,2.0000002,1035.3622)" style="fill:#272727;fill-opacity:1;stroke:#272727;stroke-width:.80000001;stroke-linecap:round;stroke-linejoin:round;stroke-miterlimit:4;stroke-opacity:1;stroke-dasharray:none;stroke-dashoffset:1.6;display:inline"/><path id="path4901-1" d="m 5,4.5 a 0.5,0.5 0 1 1 -1,0 0.5,0.5 0 1 1 1,0 z" transform="matrix(1.6666666,0,0,1.6666666,2.0000002,1042.3622)" style="fill:#272727;fill-opacity:1;stroke:#272727;stroke-width:.80000001;stroke-linecap:round;stroke-linejoin:round;stroke-miterlimit:4;stroke-opacity:1;stroke-dasharray:none;stroke-dashoffset:1.6;display:inline"/></g><g style="display:none" id="g4096" transform="translate(0,-1040.3622)"><path style="fill:none;stroke:#272727;stroke-width:1.20000005;stroke-linecap:butt;stroke-linejoin:miter;stroke-miterlimit:4;stroke-opacity:1;stroke-dasharray:none" id="path4130" d="m 6,2.5 -3.5,7" transform="translate(0,1040.3622)"/><path style="fill:none;stroke:#272727;stroke-width:1.20000005;stroke-linecap:round;stroke-linejoin:miter;stroke-miterlimit:4;stroke-opacity:1;stroke-dasharray:none" id="path4132" d="M 9.5,9.5 6,2.5" transform="translate(0,1040.3622)"/><path style="fill:#272727;fill-opacity:1;stroke:#272727;stroke-width:.80000001;stroke-linecap:round;stroke-linejoin:round;stroke-miterlimit:4;stroke-opacity:1;stroke-dasharray:none;stroke-dashoffset:1.6;display:inline" id="path4098" d="m 5,4.5 a 0.5,0.5 0 1 1 -1,0 0.5,0.5 0 1 1 1,0 z" transform="matrix(1.6666666,0,0,1.6666666,-4.9999998,1042.3622)"/><path style="fill:#272727;fill-opacity:1;stroke:#272727;stroke-width:.80000001;stroke-linecap:round;stroke-linejoin:round;stroke-miterlimit:4;stroke-opacity:1;stroke-dasharray:none;stroke-dashoffset:1.6;display:inline" id="path4104" d="m 5,4.5 a 0.5,0.5 0 1 1 -1,0 0.5,0.5 0 1 1 1,0 z" transform="matrix(1.6666666,0,0,1.6666666,-1.4999997,1035.3622)"/><path style="fill:#272727;fill-opacity:1;stroke:#272727;stroke-width:.80000001;stroke-linecap:round;stroke-linejoin:round;stroke-miterlimit:4;stroke-opacity:1;stroke-dasharray:none;stroke-dashoffset:1.6;display:inline" id="path4106" d="m 5,4.5 a 0.5,0.5 0 1 1 -1,0 0.5,0.5 0 1 1 1,0 z" transform="matrix(1.6666666,0,0,1.6666666,2.0000002,1042.3622)"/></g><g style="display:inline" id="g3904" transform="translate(0,-1040.3622)"><path style="fill:none;stroke:#272727;stroke-width:1.20000005;stroke-linecap:round;stroke-linejoin:round;stroke-miterlimit:4;stroke-opacity:1;stroke-dasharray:none" id="path3906" d="M 2,10 10,2" transform="translate(0,1040.3622)"/><path style="fill:#272727;fill-opacity:1;stroke:#272727;stroke-width:.80000001;stroke-linecap:round;stroke-linejoin:round;stroke-miterlimit:4;stroke-opacity:1;stroke-dasharray:none;stroke-dashoffset:1.6;display:inline" id="path3908" d="m 5,4.5 a 0.5,0.5 0 1 1 -1,0 0.5,0.5 0 1 1 1,0 z" transform="matrix(1.6666666,0,0,1.6666666,2.0000002,1035.3622)"/><path style="fill:#272727;fill-opacity:1;stroke:#272727;stroke-width:.80000001;stroke-linecap:round;stroke-linejoin:round;stroke-miterlimit:4;stroke-opacity:1;stroke-dasharray:none;stroke-dashoffset:1.6;display:inline" id="path3910" d="m 5,4.5 a 0.5,0.5 0 1 1 -1,0 0.5,0.5 0 1 1 1,0 z" transform="matrix(1.6666666,0,0,1.6666666,-4.9999998,1042.3622)"/></g><g id="g4523" transform="translate(0,-1040.3622)" style="display:none"><path id="path4525" d="M 2,10 10,2" transform="translate(0,1040.3622)" style="fill:none;stroke:#272727;stroke-width:1.20000005;stroke-linecap:round;stroke-linejoin:round;stroke-miterlimit:4;stroke-opacity:1;stroke-dasharray:none"/><path id="path4527" d="m 5,4.5 a 0.5,0.5 0 1 1 -1,0 0.5,0.5 0 1 1 1,0 z" transform="matrix(1.6666666,0,0,1.6666666,2.0000002,1035.3622)" style="fill:#272727;fill-opacity:1;stroke:#272727;stroke-width:.80000001;stroke-linecap:round;stroke-linejoin:round;stroke-miterlimit:4;stroke-opacity:1;stroke-dasharray:none;stroke-dashoffset:1.6;display:inline"/><path id="path4529" d="m 5,4.5 a 0.5,0.5 0 1 1 -1,0 0.5,0.5 0 1 1 1,0 z" transform="matrix(1.6666666,0,0,1.6666666,-4.9999998,1042.3622)" style="fill:#272727;fill-opacity:1;stroke:#272727;stroke-width:.80000001;stroke-linecap:round;stroke-linejoin:round;stroke-miterlimit:4;stroke-opacity:1;stroke-dasharray:none;stroke-dashoffset:1.6;display:inline"/><path id="path4531" d="m 5,4.5 a 0.5,0.5 0 1 1 -1,0 0.5,0.5 0 1 1 1,0 z" transform="matrix(1.6666666,0,0,1.6666666,2.0000002,1042.3622)" style="fill:#272727;fill-opacity:1;stroke:#272727;stroke-width:.80000001;stroke-linecap:round;stroke-linejoin:round;stroke-miterlimit:4;stroke-opacity:1;stroke-dasharray:none;stroke-dashoffset:1.6;display:inline"/></g></svg>