<svg xmlns="http://www.w3.org/2000/svg" xmlns:svg="http://www.w3.org/2000/svg" id="svg7357" width="16" height="16" enable-background="new" version="1.1"><defs id="defs7359"><filter id="filter3767"><feBlend id="feBlend3769" in2="BackgroundImage" mode="multiply"/></filter></defs><metadata id="metadata7362"/><g id="layer1" transform="translate(0,-1036.3622)" style="display:none;filter:url(#filter3767)"><path style="fill:#fff;fill-opacity:1;fill-rule:nonzero;stroke:#fff;stroke-width:1;stroke-linecap:round;stroke-linejoin:round;stroke-miterlimit:4;stroke-opacity:1;stroke-dasharray:none" id="path7367" d="m 13,8.5 a 5.5,5.5 0 1 1 -11,0 5.5,5.5 0 1 1 11,0 z" transform="translate(0.5,1035.8622)"/><g id="g4041"><path id="rect3768" d="m 11,1044.3622 -3.0000001,4 -2.9999999,-4 z" style="fill:#202020;fill-opacity:1;fill-rule:nonzero;stroke:#202020;stroke-width:.99999994;stroke-linecap:round;stroke-linejoin:round;stroke-miterlimit:4;stroke-opacity:1;stroke-dashoffset:1.6"/><rect id="rect3771" width="1.5" height="5" x="7.25" y="1040.862" rx="0" ry="0" style="fill:#202020;fill-opacity:1;fill-rule:nonzero;stroke:#202020;stroke-width:1;stroke-linecap:round;stroke-linejoin:round;stroke-miterlimit:4;stroke-opacity:1;stroke-dasharray:none;stroke-dashoffset:1.6"/></g></g><g style="display:none;filter:url(#filter3767)" id="g3795" transform="translate(0,-1036.3622)"><path id="path3797" d="m 13,8.5 a 5.5,5.5 0 1 1 -11,0 5.5,5.5 0 1 1 11,0 z" transform="matrix(1.1818182,0,0,1.1818182,-0.8636365,1034.3167)" style="fill:#fff;fill-opacity:1;fill-rule:nonzero;stroke:#fff;stroke-width:.84615386;stroke-linecap:round;stroke-linejoin:round;stroke-miterlimit:4;stroke-opacity:1;stroke-dasharray:none"/><g id="g3803" transform="matrix(1.1666857,0,0,1.1999732,-1.3334856,-209.14443)"><path style="fill:#202020;fill-opacity:1;fill-rule:nonzero;stroke:#202020;stroke-width:.84515679;stroke-linecap:round;stroke-linejoin:round;stroke-miterlimit:4;stroke-opacity:1;stroke-dashoffset:1.6" id="path3799" d="m 11,1044.3622 -3.0000001,4 -2.9999999,-4 z"/><rect style="fill:#202020;fill-opacity:1;fill-rule:nonzero;stroke:#202020;stroke-width:.84515685;stroke-linecap:round;stroke-linejoin:round;stroke-miterlimit:4;stroke-opacity:1;stroke-dasharray:none;stroke-dashoffset:1.6" id="rect3801" width="1.5" height="5" x="7.25" y="1040.862" rx="0" ry="0"/></g></g><g id="g3826" transform="translate(0,-1036.3622)" style="display:none;filter:url(#filter3767)"><path style="fill:#fff;fill-opacity:1;fill-rule:nonzero;stroke:#fff;stroke-width:.73333335;stroke-linecap:round;stroke-linejoin:round;stroke-miterlimit:4;stroke-opacity:1;stroke-dasharray:none" id="path3828" d="m 13,8.5 a 5.5,5.5 0 1 1 -11,0 5.5,5.5 0 1 1 11,0 z" transform="matrix(1.3636364,0,0,1.3636364,-2.227273,1032.7713)"/><g id="g3830" transform="matrix(1.249973,0,0,1.266636,-1.999784,-278.78121)"><path id="path3832" d="m 11,1044.3622 -3.0000001,4 -2.9999999,-4 z" style="fill:#202020;fill-opacity:1;fill-rule:nonzero;stroke:#202020;stroke-width:.79473758;stroke-linecap:round;stroke-linejoin:round;stroke-miterlimit:4;stroke-opacity:1;stroke-dashoffset:1.6"/><rect id="rect3834" width="1.5" height="5" x="7.25" y="1040.862" rx="0" ry="0" style="fill:#202020;fill-opacity:1;fill-rule:nonzero;stroke:#202020;stroke-width:.79473764;stroke-linecap:round;stroke-linejoin:round;stroke-miterlimit:4;stroke-opacity:1;stroke-dasharray:none;stroke-dashoffset:1.6"/></g></g><g style="display:none;filter:url(#filter3767)" id="g4045" transform="translate(0,-1036.3622)"><path id="path4047" d="m 13,8.5 a 5.5,5.5 0 1 1 -11,0 5.5,5.5 0 1 1 11,0 z" transform="matrix(1.3636364,0,0,1.3636364,-2.227273,1032.7713)" style="fill:#fff;fill-opacity:1;fill-rule:nonzero;stroke:#fff;stroke-width:.73333335;stroke-linecap:round;stroke-linejoin:round;stroke-miterlimit:4;stroke-opacity:1;stroke-dasharray:none"/><g id="g4405"><path style="fill:#202020;fill-opacity:1;fill-rule:nonzero;stroke:#202020;stroke-width:1;stroke-linecap:round;stroke-linejoin:round;stroke-miterlimit:4;stroke-opacity:1;stroke-dashoffset:1.6" id="path4051" d="m 11.999913,1043.8622 -3.9999131,6 -3.9999128,-6 z"/><rect style="fill:#202020;fill-opacity:1;fill-rule:nonzero;stroke:#202020;stroke-width:1.00000012;stroke-linecap:round;stroke-linejoin:round;stroke-miterlimit:4;stroke-opacity:1;stroke-dasharray:none;stroke-dashoffset:1.6" id="rect4053" width="2" height="7" x="7" y="1039.862" rx="0" ry="0"/></g></g><g id="g4409" transform="translate(0,-1036.3622)" style="display:inline;filter:url(#filter3767)"><rect style="fill:#f0f0f0;fill-opacity:1;fill-rule:nonzero;stroke:#f0f0f0;stroke-width:1.00000011999999994;stroke-linecap:round;stroke-linejoin:round;stroke-miterlimit:4;stroke-opacity:1;stroke-dasharray:none;stroke-dashoffset:1.60000000000000009" id="rect4417" width="3" height="10" x="6.5" y="1036.862" rx="0" ry="0"/><path style="fill:#f0f0f0;fill-opacity:1;fill-rule:nonzero;stroke:#f0f0f0;stroke-width:.99999987999999995;stroke-linecap:round;stroke-linejoin:round;stroke-miterlimit:4;stroke-opacity:1;stroke-dashoffset:1.60000000000000009" id="path4415" d="M 14,1042.8622 8.0000001,1051.8621 2,1042.8622 z"/></g><g style="display:none;filter:url(#filter3767)" id="g4546" transform="translate(0,-1036.3622)"><path style="fill:#202020;fill-opacity:1;fill-rule:nonzero;stroke:#202020;stroke-width:1.5;stroke-linecap:round;stroke-linejoin:round;stroke-miterlimit:4;stroke-opacity:1;stroke-dasharray:none;stroke-dashoffset:1.6" id="rect4550" d="m 6.5625,1037.1122 0,5.8 -4.3125,0 5.75,8.7 5.75,-8.7 -4.3124999,0 0,-5.8 -2.8750001,0 z"/></g><g style="display:none;filter:url(#filter3767)" id="g3775" transform="translate(0,-1036.3622)"><path id="path3777" d="m 13,8.5 a 5.5,5.5 0 1 1 -11,0 5.5,5.5 0 1 1 11,0 z" transform="translate(0.5,1035.8622)" style="fill:#fff;fill-opacity:1;fill-rule:nonzero;stroke:#fff;stroke-width:1;stroke-linecap:round;stroke-linejoin:round;stroke-miterlimit:4;stroke-opacity:1;stroke-dasharray:none"/><path id="path3779" d="m 11,1043.8622 -3.0000002,5 -2.9999997,-5 z" style="fill:#000;fill-opacity:1;fill-rule:nonzero;stroke:#000;stroke-width:1;stroke-linecap:round;stroke-linejoin:round;stroke-miterlimit:4;stroke-opacity:1;stroke-dashoffset:1.6"/><rect id="rect3781" width="1.5" height="5" x="7.25" y="1039.862" rx="0" ry="0" style="fill:#000;fill-opacity:1;fill-rule:nonzero;stroke:#000;stroke-width:1;stroke-linecap:round;stroke-linejoin:round;stroke-miterlimit:4;stroke-opacity:1;stroke-dasharray:none;stroke-dashoffset:1.6"/></g></svg>