<svg xmlns="http://www.w3.org/2000/svg" xmlns:svg="http://www.w3.org/2000/svg" id="Layer_1" width="16" height="16" enable-background="new 0 0 50 50" version="1.1" viewBox="0 0 16 16" xml:space="preserve"><metadata id="metadata11"/><rect id="rect3" width="50" height="50" x="0" y="-34" style="fill:none"/><g id="layer1"><path id="path5" stroke-miterlimit="10" d="m 5.5380945,9.2494896 c 0,0 0.5560471,0.9713734 0.6896616,1.2256724 0.1340941,0.25358 0.1679176,0.516274 0.070526,0.675812 C 6.1505139,11.392558 4.801176,13.42119 4.6817146,13.592002 4.5620134,13.762815 4.2201811,13.845101 3.8853054,13.610235 3.5501899,13.376568 2.2260395,12.297477 2.2401926,11.840219 2.2550654,11.382242 2.2968051,9.4781187 5.8880827,5.8874671 9.4784011,2.2972953 11.382826,2.254832 11.840522,2.2401977 c 0.457696,-0.014634 1.537167,1.3096393 1.771291,1.6445456 0.233885,0.3353872 0.145849,0.6777306 -0.01871,0.7967238 -0.187349,0.1353059 -2.209317,1.4691756 -2.441283,1.6159968 -0.158083,0.1005205 -0.422193,0.063575 -0.675988,-0.070532 -0.254516,-0.1333866 -1.2255599,-0.689485 -1.2255599,-0.689485 0,0 -0.668552,0.3920039 -1.9939017,1.7177168 C 5.9307807,8.5811163 5.5380935,9.2494896 5.5380935,9.2494896 Z" style="fill:#333;fill-opacity:1;stroke:#222;stroke-width:.48;stroke-miterlimit:10;stroke-opacity:1;stroke-dasharray:none"/></g></svg>