<svg xmlns="http://www.w3.org/2000/svg" xmlns:svg="http://www.w3.org/2000/svg" id="svg7357" width="16" height="16" enable-background="new" version="1.1"><defs id="defs7359"><filter id="filter3767"><feBlend id="feBlend3769" in2="BackgroundImage" mode="multiply"/></filter></defs><metadata id="metadata7362"/><g id="layer1" transform="translate(0,-1036.3622)" style="display:none;filter:url(#filter3767)"><path style="fill:#fff;fill-opacity:1;fill-rule:nonzero;stroke:none" id="path7367" d="m 13,8.5 a 5.5,5.5 0 1 1 -11,0 5.5,5.5 0 1 1 11,0 z" transform="matrix(1.0909091,0,0,1.0909091,-0.18181825,1035.0895)"/><text style="font-size:11.98871613px;font-style:normal;font-variant:normal;font-weight:700;font-stretch:normal;text-align:start;line-height:125%;letter-spacing:0;word-spacing:0;text-anchor:start;opacity:.97000002;fill:#000;fill-opacity:1;stroke:none;font-family:URW Palladio L;-inkscape-font-specification:URW Palladio L Bold" id="text3763" x="6.01" y="1048.576" xml:space="preserve"><tspan id="tspan3765" x="6.01" y="1048.576">i</tspan></text></g><g style="display:none;filter:url(#filter3767)" id="g3759" transform="translate(0,-1036.3622)"><path id="path3761" d="m 13,8.5 a 5.5,5.5 0 1 1 -11,0 5.5,5.5 0 1 1 11,0 z" transform="matrix(1.4545455,0,0,1.4545455,-2.9090913,1031.9986)" style="fill:#fff;fill-opacity:1;fill-rule:nonzero;stroke:none"/><text id="text3764" x="5.423" y="1061.615" transform="scale(1.0114781,0.98865214)" xml:space="preserve" style="font-size:14.97957802px;font-style:normal;font-variant:normal;font-weight:700;font-stretch:normal;text-align:start;line-height:125%;letter-spacing:0;word-spacing:0;text-anchor:start;opacity:.97000002;fill:#000;fill-opacity:1;stroke:none;font-family:URW Palladio L;-inkscape-font-specification:URW Palladio L Bold"><tspan id="tspan3766" x="5.423" y="1061.615">i</tspan></text></g><g id="g3768" transform="translate(0,-1036.3622)" style="display:none;filter:url(#filter3767)"><path style="fill:#fff;fill-opacity:1;fill-rule:nonzero;stroke:none" id="path3770" d="m 13,8.5 a 5.5,5.5 0 1 1 -11,0 5.5,5.5 0 1 1 11,0 z" transform="matrix(1.2727273,0,0,1.2727273,-1.5454547,1033.544)"/><text style="font-size:14.61857033px;font-style:normal;font-variant:normal;font-weight:700;font-stretch:normal;text-align:start;line-height:125%;letter-spacing:0;word-spacing:0;text-anchor:start;opacity:.97000002;fill:#000;fill-opacity:1;stroke:none;font-family:URW Palladio L;-inkscape-font-specification:URW Palladio L Bold" id="text3772" x="5.292" y="1087.575" transform="scale(1.0364567,0.96482565)" xml:space="preserve"><tspan id="tspan3774" x="5.292" y="1087.575">i</tspan></text></g><g style="display:inline;filter:url(#filter3767)" id="g3890" transform="translate(0,-1036.3622)"><text id="text3894" x="3.746" y="1099.145" transform="scale(1.0445226,0.95737516)" xml:space="preserve" style="font-size:23.57173729000000151px;font-style:normal;font-variant:normal;font-weight:700;font-stretch:normal;text-align:start;line-height:125%;letter-spacing:0;word-spacing:0;text-anchor:start;opacity:.97000001999999996;fill:#fff;fill-opacity:1;stroke:none;font-family:URW Palladio L;-inkscape-font-specification:URW Palladio L Bold"><tspan id="tspan3896" x="3.746" y="1099.145">i</tspan></text></g></svg>