<svg xmlns="http://www.w3.org/2000/svg" xmlns:svg="http://www.w3.org/2000/svg" id="svg2" width="12" height="12" version="1.1"><metadata id="metadata7"/><g style="display:none" id="g3974" transform="translate(0,-1040.3622)"><path style="fill:none;stroke:#333;stroke-width:1.20000017;stroke-linecap:square;stroke-linejoin:round;stroke-miterlimit:4;stroke-opacity:1;stroke-dasharray:none;display:inline" id="path3976" d="m 8.0500001,1046.7622 0,-3.191 c 0,-0.5636 -0.5323592,-1.1286 -1.0512822,-1.3866 -0.596438,-0.2965 -1.4009978,-0.2965 -1.9974358,0 -0.518923,0.258 -1.0512821,0.823 -1.0512821,1.3866"/><rect id="rect3978" width="7" height="4" x="2.5" y="1046.862" style="fill:#545454;fill-opacity:1;fill-rule:nonzero;stroke:#333;stroke-width:1;stroke-linecap:round;stroke-linejoin:round;stroke-miterlimit:4;stroke-opacity:1;stroke-dasharray:none;stroke-dashoffset:1.6"/></g><g id="g3874" transform="translate(0,-1040.3622)" style="display:inline"><path id="path3876" d="m 8.0500001,1046.7622 0,-3.191 c 0,-0.5636 -0.5323592,-1.1286 -1.0512822,-1.3866 -0.596438,-0.2965 -1.4009978,-0.2965 -1.9974358,0 -0.518923,0.258 -1.0512821,0.823 -1.0512821,1.3866 l 0,3.191" style="fill:none;stroke:#333;stroke-width:1.20000017;stroke-linecap:square;stroke-linejoin:round;stroke-miterlimit:4;stroke-opacity:1;stroke-dasharray:none;display:inline"/><rect style="fill:#545454;fill-opacity:1;fill-rule:nonzero;stroke:#333;stroke-width:1;stroke-linecap:round;stroke-linejoin:round;stroke-miterlimit:4;stroke-opacity:1;stroke-dasharray:none;stroke-dashoffset:1.6" id="rect3878" width="7" height="4" x="2.5" y="1046.862"/></g><g style="display:none" id="g5403" transform="translate(0,-1040.3622)"><path style="fill:none;stroke:green;stroke-width:1.20000017;stroke-linecap:square;stroke-linejoin:round;stroke-miterlimit:4;stroke-opacity:1;stroke-dasharray:none;display:inline" id="path5405" d="m 8.0500001,1046.7622 0,-3.191 c 0,-0.5636 -0.5323592,-1.1286 -1.0512822,-1.3866 -0.596438,-0.2965 -1.4009978,-0.2965 -1.9974358,0 -0.518923,0.258 -1.0512821,0.823 -1.0512821,1.3866 l 0,3.191"/><rect id="rect5407" width="7" height="4" x="2.5" y="1046.862" style="fill:#00c000;fill-opacity:1;fill-rule:nonzero;stroke:green;stroke-width:1;stroke-linecap:round;stroke-linejoin:round;stroke-miterlimit:4;stroke-opacity:1;stroke-dasharray:none;stroke-dashoffset:1.6"/></g><g style="display:none" id="g7515" transform="translate(0,-1040.3622)"><path style="fill:none;stroke:#05a;stroke-width:1.20000017;stroke-linecap:square;stroke-linejoin:round;stroke-miterlimit:4;stroke-opacity:1;stroke-dasharray:none;display:inline" id="path7517" d="m 8.0500001,1046.7622 0,-3.191 c 0,-0.5636 -0.5323592,-1.1286 -1.0512822,-1.3866 -0.596438,-0.2965 -1.4009978,-0.2965 -1.9974358,0 -0.518923,0.258 -1.0512821,0.823 -1.0512821,1.3866 l 0,3.191"/><rect id="rect7519" width="7" height="4" x="2.5" y="1046.862" style="fill:#0076ee;fill-opacity:1;fill-rule:nonzero;stroke:#05a;stroke-width:1;stroke-linecap:round;stroke-linejoin:round;stroke-miterlimit:4;stroke-opacity:1;stroke-dasharray:none;stroke-dashoffset:1.6"/></g><g id="g6866" transform="translate(0,-1040.3622)" style="display:none"><path id="path6868" d="m 8.0500001,1046.7622 0,-3.191 c 0,-0.5636 -0.5323592,-1.1286 -1.0512822,-1.3866 -0.596438,-0.2965 -1.4009978,-0.2965 -1.9974358,0 -0.518923,0.258 -1.0512821,0.823 -1.0512821,1.3866 l 0,3.191" style="fill:none;stroke:#a50;stroke-width:1.20000017;stroke-linecap:square;stroke-linejoin:round;stroke-miterlimit:4;stroke-opacity:1;stroke-dasharray:none;display:inline"/><rect style="fill:#ee7600;fill-opacity:1;fill-rule:nonzero;stroke:#a50;stroke-width:1;stroke-linecap:round;stroke-linejoin:round;stroke-miterlimit:4;stroke-opacity:1;stroke-dasharray:none;stroke-dashoffset:1.6" id="rect6870" width="7" height="4" x="2.5" y="1046.862"/></g><g style="display:none" id="g7033" transform="translate(0,-1040.3622)"><path style="fill:none;stroke:maroon;stroke-width:1.20000017;stroke-linecap:square;stroke-linejoin:round;stroke-miterlimit:4;stroke-opacity:1;stroke-dasharray:none;display:inline" id="path7035" d="m 8.0500001,1046.7622 0,-3.191 c 0,-0.5636 -0.5323592,-1.1286 -1.0512822,-1.3866 -0.596438,-0.2965 -1.4009978,-0.2965 -1.9974358,0 -0.518923,0.258 -1.0512821,0.823 -1.0512821,1.3866 l 0,3.191"/><rect id="rect7037" width="7" height="4" x="2.5" y="1046.862" style="fill:#c00000;fill-opacity:1;fill-rule:nonzero;stroke:maroon;stroke-width:1;stroke-linecap:round;stroke-linejoin:round;stroke-miterlimit:4;stroke-opacity:1;stroke-dasharray:none;stroke-dashoffset:1.6"/></g><g style="display:none" id="g7832" transform="translate(0,-1040.3622)"><path style="fill:none;stroke:#333;stroke-width:1.20000017;stroke-linecap:square;stroke-linejoin:round;stroke-miterlimit:4;stroke-opacity:1;stroke-dasharray:none;display:inline" id="path7834" d="m 8.6,1046.7622 0,-4.191 c 0,-0.5636 -0.6751873,-1.1286 -1.3333336,-1.3866 -0.7564579,-0.2965 -1.7768752,-0.2965 -2.5333329,0 C 4.0751872,1041.4426 3.4,1042.0076 3.4,1042.5712 l 0,4.191"/><rect id="rect7836" width="9" height="5" x="1.5" y="1046.862" style="fill:#545454;fill-opacity:1;fill-rule:nonzero;stroke:#333;stroke-width:1;stroke-linecap:round;stroke-linejoin:round;stroke-miterlimit:4;stroke-opacity:1;stroke-dasharray:none;stroke-dashoffset:1.6"/></g></svg>