<svg xmlns="http://www.w3.org/2000/svg" xmlns:svg="http://www.w3.org/2000/svg" id="svg2" width="32" height="32" version="1.1"><metadata id="metadata7"/><g style="display:none" id="g3974" transform="translate(0,-1020.3622)"><path style="fill:none;stroke:#333;stroke-width:3.36001468;stroke-linecap:square;stroke-linejoin:round;stroke-miterlimit:4;stroke-opacity:1;stroke-dasharray:none;display:inline" id="path3976" d="m 21.740024,1037.4822 0,-8.9348 c 0,-1.5781 -1.490612,-3.1601 -2.943602,-3.8825 -1.670034,-0.8302 -3.92281,-0.8302 -5.592844,0 -1.45299,0.7224 -2.943602,2.3044 -2.943602,3.8825"/><rect id="rect3978" width="19.6" height="11.2" x="6.2" y="1037.762" style="fill:#545454;fill-opacity:1;fill-rule:nonzero;stroke:#333;stroke-width:2.80001187;stroke-linecap:round;stroke-linejoin:round;stroke-miterlimit:4;stroke-opacity:1;stroke-dasharray:none;stroke-dashoffset:1.6"/></g><g id="g3874" transform="translate(0,-1020.3622)" style="display:inline"><path id="path3876" d="m 21.740024,1037.4822 0,-8.9348 c 0,-1.5781 -1.490612,-3.1601 -2.943602,-3.8825 -1.670034,-0.8302 -3.92281,-0.8302 -5.592844,0 -1.45299,0.7224 -2.943602,2.3044 -2.943602,3.8825 l 0,8.9348" style="fill:none;stroke:#333;stroke-width:3.36001468;stroke-linecap:square;stroke-linejoin:round;stroke-miterlimit:4;stroke-opacity:1;stroke-dasharray:none;display:inline"/><rect style="fill:#545454;fill-opacity:1;fill-rule:nonzero;stroke:#333;stroke-width:2.79999995;stroke-linecap:round;stroke-linejoin:round;stroke-miterlimit:4;stroke-opacity:1;stroke-dasharray:none;stroke-dashoffset:1.6" id="rect3878" width="19.6" height="11.2" x="6.2" y="1037.762"/></g><g style="display:none" id="g5403" transform="translate(0,-1020.3622)"><path style="fill:none;stroke:green;stroke-width:3.36001468;stroke-linecap:square;stroke-linejoin:round;stroke-miterlimit:4;stroke-opacity:1;stroke-dasharray:none;display:inline" id="path5405" d="m 21.740024,1037.4822 0,-8.9348 c 0,-1.5781 -1.490612,-3.1601 -2.943602,-3.8825 -1.670034,-0.8302 -3.92281,-0.8302 -5.592844,0 -1.45299,0.7224 -2.943602,2.3044 -2.943602,3.8825 l 0,8.9348"/><rect id="rect5407" width="19.6" height="11.2" x="6.2" y="1037.762" style="fill:#00c000;fill-opacity:1;fill-rule:nonzero;stroke:green;stroke-width:2.80001187;stroke-linecap:round;stroke-linejoin:round;stroke-miterlimit:4;stroke-opacity:1;stroke-dasharray:none;stroke-dashoffset:1.6"/></g><g style="display:none" id="g7515" transform="translate(0,-1020.3622)"><path style="fill:none;stroke:#05a;stroke-width:3.36001468;stroke-linecap:square;stroke-linejoin:round;stroke-miterlimit:4;stroke-opacity:1;stroke-dasharray:none;display:inline" id="path7517" d="m 21.740024,1037.4822 0,-8.9348 c 0,-1.5781 -1.490612,-3.1601 -2.943602,-3.8825 -1.670034,-0.8302 -3.92281,-0.8302 -5.592844,0 -1.45299,0.7224 -2.943602,2.3044 -2.943602,3.8825 l 0,8.9348"/><rect id="rect7519" width="19.6" height="11.2" x="6.2" y="1037.762" style="fill:#0076ee;fill-opacity:1;fill-rule:nonzero;stroke:#05a;stroke-width:2.80001187;stroke-linecap:round;stroke-linejoin:round;stroke-miterlimit:4;stroke-opacity:1;stroke-dasharray:none;stroke-dashoffset:1.6"/></g><g id="g6866" transform="translate(0,-1020.3622)" style="display:none"><path id="path6868" d="m 21.740024,1037.4822 0,-8.9348 c 0,-1.5781 -1.490612,-3.1601 -2.943602,-3.8825 -1.670034,-0.8302 -3.92281,-0.8302 -5.592844,0 -1.45299,0.7224 -2.943602,2.3044 -2.943602,3.8825 l 0,8.9348" style="fill:none;stroke:#a50;stroke-width:3.36001468;stroke-linecap:square;stroke-linejoin:round;stroke-miterlimit:4;stroke-opacity:1;stroke-dasharray:none;display:inline"/><rect style="fill:#ee7600;fill-opacity:1;fill-rule:nonzero;stroke:#a50;stroke-width:2.80001187;stroke-linecap:round;stroke-linejoin:round;stroke-miterlimit:4;stroke-opacity:1;stroke-dasharray:none;stroke-dashoffset:1.6" id="rect6870" width="19.6" height="11.2" x="6.2" y="1037.762"/></g><g style="display:none" id="g7033" transform="translate(0,-1020.3622)"><path style="fill:none;stroke:maroon;stroke-width:3.36001468;stroke-linecap:square;stroke-linejoin:round;stroke-miterlimit:4;stroke-opacity:1;stroke-dasharray:none;display:inline" id="path7035" d="m 21.740024,1037.4822 0,-8.9348 c 0,-1.5781 -1.490612,-3.1601 -2.943602,-3.8825 -1.670034,-0.8302 -3.92281,-0.8302 -5.592844,0 -1.45299,0.7224 -2.943602,2.3044 -2.943602,3.8825 l 0,8.9348"/><rect id="rect7037" width="19.6" height="11.2" x="6.2" y="1037.762" style="fill:#c00000;fill-opacity:1;fill-rule:nonzero;stroke:maroon;stroke-width:2.80001187;stroke-linecap:round;stroke-linejoin:round;stroke-miterlimit:4;stroke-opacity:1;stroke-dasharray:none;stroke-dashoffset:1.6"/></g><g style="display:none" id="g7832" transform="translate(0,-1020.3622)"><g id="g3961" transform="matrix(2.6666761,0,0,2.6666761,-5.66e-5,-1753.9469)"><path id="path7834" d="m 8.6,1046.7622 0,-4.191 c 0,-0.5636 -0.6751873,-1.1286 -1.3333336,-1.3866 -0.7564579,-0.2965 -1.7768752,-0.2965 -2.5333329,0 C 4.0751872,1041.4426 3.4,1042.0076 3.4,1042.5712 l 0,4.191" style="fill:none;stroke:#333;stroke-width:1.20000017;stroke-linecap:square;stroke-linejoin:round;stroke-miterlimit:4;stroke-opacity:1;stroke-dasharray:none;display:inline"/><rect style="fill:#545454;fill-opacity:1;fill-rule:nonzero;stroke:#333;stroke-width:1;stroke-linecap:round;stroke-linejoin:round;stroke-miterlimit:4;stroke-opacity:1;stroke-dasharray:none;stroke-dashoffset:1.6" id="rect7836" width="9" height="5" x="1.5" y="1046.862"/></g></g></svg>