<svg xmlns="http://www.w3.org/2000/svg" xmlns:svg="http://www.w3.org/2000/svg" id="svg2" width="12" height="12" enable-background="new" version="1.1" viewBox="0 0 12 12"><metadata id="metadata12"/><defs id="defs3051"><style id="current-color-scheme" type="text/css">.ColorScheme-Text{color:#4d4d4d}</style></defs><g id="layer1" style="display:inline;opacity:1"><path style="color:#4d4d4d;opacity:1;fill:#444;fill-opacity:1;stroke:none" id="path6" d="M 6,0 C 4.892,0 4,0.892 4,2 L 4,6 C 4,7.108 4.892,8 6,8 7.108,8 8,7.108 8,6 L 8,2 C 8,0.892 7.108,0 6,0 Z M 2,5 2,6 C 2,7.847 3.286,9.405469 5,9.8554688 L 5,11 4,11 4,12 8,12 8,11 7,11 7,9.8554688 C 8.714,9.404469 10,7.845 10,6 L 10,5 9,5 9,6 C 9,7.645 7.645,9 6,9 4.355,9 3,7.645 3,6 L 3,5 2,5 Z" class="ColorScheme-Text"/><path style="display:inline;fill:none;fill-rule:evenodd;stroke:#444;stroke-width:1.20000005;stroke-linecap:round;stroke-linejoin:miter;stroke-miterlimit:4;stroke-dasharray:none;stroke-opacity:1" id="path4377-5" d="M 1.6060602,1.6060601 C 10.39394,10.39394 10.39394,10.39394 10.39394,10.39394"/></g><g style="display:none;opacity:1" id="g8251"><path id="path8253" d="M 6,0 C 4.892,0 4,0.892 4,2 L 4,6 C 4,7.108 4.892,8 6,8 7.108,8 8,7.108 8,6 L 8,2 C 8,0.892 7.108,0 6,0 Z M 2,5 2,6 C 2,7.847 3.286,9.405469 5,9.8554688 L 5,11 4,11 4,12 8,12 8,11 7,11 7,9.8554688 C 8.714,9.404469 10,7.845 10,6 L 10,5 9,5 9,6 C 9,7.645 7.645,9 6,9 4.355,9 3,7.645 3,6 L 3,5 2,5 Z" class="ColorScheme-Text" style="color:#4d4d4d;fill:#c00;fill-opacity:1;stroke:none"/><path id="path8255" d="M 1.6060603,1.6060602 C 10.39394,10.39394 10.39394,10.39394 10.39394,10.39394" style="display:inline;fill:none;fill-rule:evenodd;stroke:#c00;stroke-width:1.20000017;stroke-linecap:round;stroke-linejoin:miter;stroke-miterlimit:4;stroke-dasharray:none;stroke-opacity:1"/></g><g id="layer3" style="display:none"><g id="g4418"><path id="path4414" d="M 6,0 C 4,0 4,2 4,2 L 4,6 C 4,6 4,8 6,8 8,8 8,6 8,6 L 8,2 C 8,2 8,0 6,0 Z" style="opacity:1;fill:#4d4d4d;fill-opacity:1;fill-rule:evenodd;stroke:none;stroke-width:1px;stroke-linecap:butt;stroke-linejoin:miter;stroke-opacity:1"/><path id="path4416" d="M 3,5 2,5 2,6 c 0,3 3,4 3,4 l 0,1 -1,0 0,1 4,0 0,-1 -1,0 0,-1 c 0,0 3,-1 3,-4 L 10,5 9,5 9,6 C 9,7.5 7.5,9 6,9 4.5,9 3,7.5 3,6 Z" style="opacity:1;fill:#4d4d4d;fill-opacity:1;fill-rule:evenodd;stroke:none;stroke-width:1px;stroke-linecap:butt;stroke-linejoin:miter;stroke-opacity:1"/></g></g><g id="g4327" style="display:none;opacity:1"><path style="color:#4d4d4d;fill:#960000;fill-opacity:1;stroke:none" id="path4329" d="M 6,0 C 4.892,0 4,0.892 4,2 L 4,6 C 4,7.108 4.892,8 6,8 7.108,8 8,7.108 8,6 L 8,2 C 8,0.892 7.108,0 6,0 Z M 2,5 2,6 C 2,7.847 3.286,9.405469 5,9.8554688 L 5,11 4,11 4,12 8,12 8,11 7,11 7,9.8554688 C 8.714,9.404469 10,7.845 10,6 L 10,5 9,5 9,6 C 9,7.645 7.645,9 6,9 4.355,9 3,7.645 3,6 L 3,5 2,5 Z" class="ColorScheme-Text"/><path style="display:inline;fill:none;fill-rule:evenodd;stroke:#d00;stroke-width:1.20000017;stroke-linecap:round;stroke-linejoin:miter;stroke-miterlimit:4;stroke-dasharray:none;stroke-opacity:1" id="path4377-7" d="M 1.6060603,1.6060602 C 10.39394,10.39394 10.39394,10.39394 10.39394,10.39394"/></g></svg>