<svg xmlns="http://www.w3.org/2000/svg" xmlns:svg="http://www.w3.org/2000/svg" id="svg2985" width="16" height="16" version="1.1"><metadata id="metadata2990"/><g id="g3841" style="display:none"><rect style="fill:#505050;fill-opacity:1;fill-rule:nonzero;stroke:#000;stroke-width:.70000011;stroke-linecap:round;stroke-linejoin:round;stroke-miterlimit:4;stroke-opacity:1;stroke-dasharray:none" id="rect3843" width="3.8" height="8.3" x="6" y="1.35" rx="1.9" ry="2.145"/><rect style="fill:#000;fill-opacity:1;stroke:none" id="rect3845" width="8" height="1" x="4" y="14" ry=".483"/><rect style="fill:#000;fill-opacity:1;stroke:none;display:inline" id="rect3847" width="3" height="1" x="12" y="-8.5" ry=".483" transform="matrix(0,1,-1,0,0,0)"/><path id="path3849" d="m 12,7.25 0,0.7803915 C 12,10.229554 10.216,12 8.0000004,12 5.784,12 4,10.229554 4,8.0303915 L 4,7.25" style="fill:none;stroke:#000;stroke-width:1;stroke-linecap:round;stroke-linejoin:round;stroke-miterlimit:4;stroke-opacity:1;stroke-dasharray:none;display:inline"/></g><g id="layer3" style="display:inline"><rect style="fill:#505050;fill-opacity:1;fill-rule:nonzero;stroke:#000;stroke-width:.69999999;stroke-linecap:round;stroke-linejoin:round;stroke-miterlimit:4;stroke-opacity:1;stroke-dasharray:none" id="rect3003" width="4.3" height="8.8" x="5.85" y="1.35" rx="2.15" ry="2.274"/><path style="fill:none;stroke:#000;stroke-width:.94999999;stroke-linecap:round;stroke-linejoin:round;stroke-miterlimit:4;stroke-opacity:1;stroke-dasharray:none;stroke-dashoffset:0" id="path3773" d="m 11.959765,7.5375 c 0.0087,3.34375 -2.1384481,4.4875 -3.9506838,4.4875 -1.8122357,0 -3.9780665,-1.14375 -3.968843,-4.4875"/><rect style="fill:#000;fill-opacity:1;stroke:none" id="rect3821" width="6.5" height="1" x="4.75" y="14" ry=".483"/><rect style="fill:#000;fill-opacity:1;stroke:none;display:inline" id="rect3821-6" width="3" height="1" x="12" y="-8.5" ry=".483" transform="matrix(0,1,-1,0,0,0)"/><rect id="rect4052-4-2" width="16.662" height=".745" x="2.587" y="-.765" ry=".372" transform="matrix(0.70470371,0.70950171,-0.77812826,0.62810541,0,0)" style="fill:#000;fill-opacity:1;fill-rule:nonzero;stroke:none;display:inline"/></g><g style="display:none" id="g3168"><rect id="rect3170" width="4.3" height="8.8" x="5.85" y="1.35" rx="2.15" ry="2.274" style="fill:red;fill-opacity:1;fill-rule:nonzero;stroke:#960000;stroke-width:.69999999;stroke-linecap:round;stroke-linejoin:round;stroke-miterlimit:4;stroke-opacity:1;stroke-dasharray:none"/><path id="path3172" d="m 11.959765,7.5375 c 0.0087,3.34375 -2.1384481,4.4875 -3.9506838,4.4875 -1.8122357,0 -3.9780665,-1.14375 -3.968843,-4.4875" style="fill:none;stroke:#960000;stroke-width:.94999999;stroke-linecap:round;stroke-linejoin:round;stroke-miterlimit:4;stroke-opacity:1;stroke-dasharray:none;stroke-dashoffset:0"/><rect id="rect3174" width="6.5" height="1" x="4.75" y="14" ry=".483" style="fill:#960000;fill-opacity:1;stroke:none"/><rect id="rect3176" width="3" height="1" x="12" y="-8.5" ry=".483" transform="matrix(0,1,-1,0,0,0)" style="fill:#960000;fill-opacity:1;stroke:none;display:inline"/><rect style="fill:#960000;fill-opacity:1;fill-rule:nonzero;stroke:none;display:inline" id="rect3178" width="16.662" height=".745" x="2.587" y="-.765" ry=".372" transform="matrix(0.70470371,0.70950171,-0.77812826,0.62810541,0,0)"/></g><g id="layer4" style="display:none"><rect id="rect3017-1" width="4.3" height="8.3" x="5.85" y="1.35" rx="2.15" ry="2.145" style="fill:#505050;fill-opacity:1;fill-rule:nonzero;stroke:#000;stroke-width:.69999999;stroke-linecap:round;stroke-linejoin:round;stroke-miterlimit:4;stroke-opacity:1;stroke-dasharray:none"/><rect id="rect3021" width="6.5" height="1" x="4.75" y="13.5" ry=".483" style="fill:#000;fill-opacity:1;stroke:none"/><rect id="rect3023" width="3" height="1" x="11.5" y="-8.5" ry=".483" transform="matrix(0,1,-1,0,0,0)" style="fill:#000;fill-opacity:1;stroke:none;display:inline"/><path style="fill:none;stroke:#00000f;stroke-width:.94999999;stroke-linecap:round;stroke-linejoin:round;stroke-miterlimit:4;stroke-opacity:.94117647;stroke-dasharray:none;stroke-dashoffset:0" id="path3797" d="m 4.0952048,7.150125 c -0.296373,3.21875 2.1084638,4.374759 3.9125,4.374875 1.9375,1.25e-4 4.0830902,-1.156125 3.9125002,-4.374875"/><rect style="fill:#000;fill-opacity:1;fill-rule:nonzero;stroke:none;display:inline" id="rect3025" width="15.968" height=".714" x="2.739" y="-.927" ry=".357" transform="matrix(0.70470848,0.70949697,-0.7781324,0.62810029,0,0)"/></g><g id="layer2" style="display:none"><rect id="rect3009" width="4.1" height="7.8" x="5.95" y="1.35" rx="2.05" ry="2.016" style="fill:#505050;fill-opacity:1;fill-rule:nonzero;stroke:#000;stroke-width:.69999999;stroke-linecap:round;stroke-linejoin:round;stroke-miterlimit:4;stroke-opacity:1;stroke-dasharray:none"/><rect style="fill:#000;fill-opacity:1;fill-rule:nonzero;stroke:none;display:inline" id="rect3017" width="15.891" height=".71" x="2.667" y="-1.073" ry=".355" transform="matrix(0.70137037,0.71279703,-0.77523925,0.63166771,0,0)"/><path id="path3011" d="m 11.790295,6.8329497 c 0.0083,3.2006443 -2.046927,4.2954443 -3.7816026,4.2954443 -1.7346756,0 -3.8078131,-1.0948 -3.7989843,-4.2954443" style="fill:none;stroke:#000;stroke-width:.94999999;stroke-linecap:round;stroke-linejoin:round;stroke-miterlimit:4;stroke-opacity:1;stroke-dasharray:none;stroke-dashoffset:0"/><rect id="rect3013" width="6.5" height="1" x="4.75" y="13" ry=".483" style="fill:#000;fill-opacity:1;stroke:none"/><rect id="rect3015" width="3" height="1" x="11" y="-8.5" ry=".483" transform="matrix(0,1,-1,0,0,0)" style="fill:#000;fill-opacity:1;stroke:none;display:inline"/></g><g id="g3241" style="display:none"><rect id="rect3249" width="13.214" height=".584" x="3.945" y="-1.592" ry=".292" transform="matrix(0.66645895,0.74554173,-0.74444897,0.66767936,0,0)" style="fill:#000;fill-opacity:1;fill-rule:nonzero;stroke:none;display:inline"/><rect style="fill:#505050;fill-opacity:1;fill-rule:nonzero;stroke:#000;stroke-width:.79999995;stroke-linecap:round;stroke-linejoin:round;stroke-miterlimit:4;stroke-opacity:1;stroke-dasharray:none" id="rect3243" width="3.2" height="7.2" x="6.35" y="1.9" rx="1.6" ry="1.861"/><rect style="fill:#000;fill-opacity:1;stroke:none" id="rect3245" width="6" height="1" x="5" y="13" ry=".483"/><rect style="fill:#000;fill-opacity:1;stroke:none;display:inline" id="rect3247" width="2.5" height="1" x="11" y="-8.5" ry=".483" transform="matrix(0,1,-1,0,0,0)"/><path style="fill:none;stroke:#000;stroke-width:1;stroke-linecap:round;stroke-linejoin:round;stroke-miterlimit:4;stroke-opacity:1;stroke-dashoffset:0" id="path4043" d="M 11.249997,8.0035814 C 11.278746,10.067015 9.7903942,11.002305 7.9954704,10.999996 6.2025686,10.997686 4.781608,10.124067 4.75,7.9999984"/></g></svg>