<svg xmlns="http://www.w3.org/2000/svg" xmlns:svg="http://www.w3.org/2000/svg" id="Layer_1" width="16" height="16" x="0" y="0" version="1.1" viewBox="0 0 16 16" xml:space="preserve"><metadata id="metadata19"/><g id="layer1" style="display:inline"><path id="path9-4" d="m 13.364029,12.379035 c -0.644604,-0.216591 -1.697842,-0.283234 -2.158273,-0.455398 -0.322303,-0.122179 -0.834533,-0.249912 -0.995685,-0.44429 -0.166905,-0.188823 -0.166905,-1.5605687 -0.166905,-1.5605687 0,0 0.402877,-0.3609857 0.569783,-0.7664005 0.166907,-0.4054147 0.27626,-1.5050329 0.27626,-1.5050329 0,0 0.03453,0.011107 0.08633,0.011107 0.120864,0 0.339569,-0.07775 0.443166,-0.5886844 0.126618,-0.6275598 0.368345,-0.9552238 0.305036,-1.4161749 -0.04605,-0.3110031 -0.184173,-0.3609858 -0.264748,-0.3609858 -0.04029,0 -0.06907,0.011107 -0.06907,0.011107 0,0 0.328058,-0.4665047 0.328058,-2.054842 C 11.717988,1.6161056 10.411512,0.00555364 8.0000018,4.0000001e-8 5.5827357,0.00554704 4.2820167,1.6161056 4.2820167,3.2488719 c 0,1.5827837 0.3280576,2.054842 0.3280576,2.054842 0,0 -0.028776,-0.011107 -0.069064,-0.011107 -0.086331,0 -0.2244605,0.049983 -0.2647483,0.3609858 -0.06331,0.4609511 0.1726619,0.7941687 0.3050361,1.4161749 0.1035968,0.5109337 0.3223022,0.5886844 0.4431654,0.5886844 0.051798,0 0.086331,-0.011107 0.086331,-0.011107 0,0 0.1093525,1.1051718 0.276259,1.5050329 0.1669064,0.4054148 0.5697836,0.7664005 0.5697836,0.7664005 0,0 0,1.3717456 -0.1669065,1.5605686 C 5.6230213,11.668171 5.1165472,11.801458 4.794245,11.923637 4.3338133,12.095801 3.2805757,12.162444 2.6359714,12.379035 1.991367,12.595627 2.5e-8,13.500867 2.5e-8,16 H 16 c 0,-2.499133 -1.985612,-3.404373 -2.635971,-3.620965 z" style="fill:#f0f0f0;fill-opacity:1"/></g><g id="layer3" style="display:none"><path style="fill:#f0f0f0;fill-opacity:1;fill-rule:nonzero;stroke:#f0f0f0;stroke-width:.26457518;stroke-linecap:round;stroke-linejoin:round;stroke-miterlimit:4;stroke-opacity:1;stroke-dasharray:none;stroke-dashoffset:1.6;display:inline" id="path5460" d="m 1,4.2499999 a 1.5,1.75 0 0 1 3,1e-7 l -1.5,0 z" transform="matrix(4.9999999,0,0,2.8571428,-4.4999998,3.357143)"/><path style="fill:#f0f0f0;fill-opacity:1;fill-rule:nonzero;stroke:none;display:inline" id="path4906" d="m 8.5,2.5 a 2.5,2.5 0 1 1 -5,0 2.5,2.5 0 1 1 5,0 z" transform="matrix(1.8,0,0,1.8,-2.8,0)"/><rect style="fill:#f0f0f0;fill-opacity:1;fill-rule:nonzero;stroke:#f0f0f0;stroke-width:1;stroke-linecap:round;stroke-linejoin:round;stroke-miterlimit:4;stroke-opacity:1;stroke-dasharray:none;stroke-dashoffset:1.6;display:inline" id="rect5512" width="3" height="7" x="6.5" y="4.5" rx=".667" ry=".324"/></g><g style="display:none" id="g4045"><path id="path4047" d="m 1,4.2499999 a 1.5,1.75 0 0 1 3,1e-7 l -1.5,0 z" transform="matrix(4.9999999,0,0,2.8571428,-4.4999998,3.357143)" style="fill:#f0f0f0;fill-opacity:1;fill-rule:nonzero;stroke:#f0f0f0;stroke-width:.26457518;stroke-linecap:round;stroke-linejoin:round;stroke-miterlimit:4;stroke-opacity:1;stroke-dasharray:none;stroke-dashoffset:1.6;display:inline"/><path id="path4049" d="m 8.5,2.5 a 2.5,2.5 0 1 1 -5,0 2.5,2.5 0 1 1 5,0 z" transform="matrix(1.8,0,0,1.8,-2.8,0)" style="fill:#f0f0f0;fill-opacity:1;fill-rule:nonzero;stroke:none;display:inline"/></g></svg>