<svg xmlns="http://www.w3.org/2000/svg" xmlns:svg="http://www.w3.org/2000/svg" xmlns:xlink="http://www.w3.org/1999/xlink" id="svg4492" width="16" height="16" version="1.1"><script id="script4502"/><metadata id="metadata4497"/><g id="layer1" transform="translate(0,-1036.3622)" style="display:inline"><rect style="fill:#303030;fill-opacity:1;stroke:#000;stroke-width:.74999994;stroke-linecap:round;stroke-linejoin:round;stroke-miterlimit:4;stroke-opacity:.23529412;stroke-dasharray:none;stroke-dashoffset:0" id="rect4504" width="2.55" height="11.25" x="3.975" y="1038.737" rx="1.275" ry="1.339"/><rect style="fill:#303030;fill-opacity:1;stroke:#000;stroke-width:.75;stroke-linecap:round;stroke-linejoin:round;stroke-miterlimit:4;stroke-opacity:.23529412;stroke-dasharray:none;stroke-dashoffset:0" id="rect4504-2" width="2.55" height="11.25" x="9.475" y="1038.737" rx="1.275" ry="1.339"/></g><g id="g5135" transform="translate(0,-1036.3622)" style="display:none"><rect id="rect5137" width="2.55" height="11.25" x="3.975" y="1038.737" rx="1.275" ry="1.339" style="fill:#3d7fcb;fill-opacity:1;stroke:#6ab0ff;stroke-width:.74999994;stroke-linecap:round;stroke-linejoin:round;stroke-miterlimit:4;stroke-opacity:1;stroke-dasharray:none;stroke-dashoffset:0"/><rect id="rect5139" width="2.55" height="11.25" x="9.475" y="1038.737" rx="1.275" ry="1.339" style="fill:#3d7fcb;fill-opacity:1;stroke:#69afff;stroke-width:.75;stroke-linecap:round;stroke-linejoin:round;stroke-miterlimit:4;stroke-opacity:1;stroke-dasharray:none;stroke-dashoffset:0"/></g><g id="layer5" style="display:none"><g style="display:inline" id="g8086" transform="translate(-2.5331974e-7,-1036.3622)"><rect style="fill:#6ab0ff;fill-opacity:1;stroke:#3d7fcb;stroke-width:.74999994;stroke-linecap:round;stroke-linejoin:round;stroke-miterlimit:4;stroke-opacity:1;stroke-dasharray:none;stroke-dashoffset:0" id="rect5137-5" width="2.55" height="11.25" x="3.975" y="1038.737" rx="1.275" ry="1.339"/><rect style="fill:#6ab0ff;fill-opacity:1;stroke:#3d7fcb;stroke-width:.75;stroke-linecap:round;stroke-linejoin:round;stroke-miterlimit:4;stroke-opacity:1;stroke-dasharray:none;stroke-dashoffset:0" id="rect5139-4" width="2.55" height="11.25" x="9.475" y="1038.737" rx="1.275" ry="1.339"/></g></g><g style="display:none" id="g8193" transform="translate(0,-1036.3622)"><path style="fill:#fff;fill-opacity:1;fill-rule:nonzero;stroke:#000;stroke-width:.86666667;stroke-linecap:round;stroke-linejoin:round;stroke-miterlimit:4;stroke-opacity:1;stroke-dasharray:none;stroke-dashoffset:0" id="path8199" d="M 14,8.5 C 14,12.089851 11.089851,15 7.5,15 3.9101491,15 1,12.089851 1,8.5 1,4.9101491 3.9101491,2 7.5,2 11.089851,2 14,4.9101491 14,8.5 z" transform="matrix(1.1538462,0,0,1.1538462,-0.6538465,1034.5545)"/><rect id="rect8195" width="2.55" height="8.25" x="4.075" y="1040.237" rx="1.275" ry=".982" style="fill:#303030;fill-opacity:1;stroke:#000;stroke-width:.74999994;stroke-linecap:round;stroke-linejoin:round;stroke-miterlimit:4;stroke-opacity:.23529412;stroke-dasharray:none;stroke-dashoffset:0"/><rect id="rect8197" width="2.55" height="8.25" x="9.375" y="1040.237" rx="1.275" ry=".982" style="fill:#303030;fill-opacity:1;stroke:#000;stroke-width:.74999994;stroke-linecap:round;stroke-linejoin:round;stroke-miterlimit:4;stroke-opacity:.23529412;stroke-dasharray:none;stroke-dashoffset:0"/></g><g id="g8500" transform="translate(0,-1036.3622)" style="display:none"><path id="path8502" d="m 14,8.5 a 6.5,6.5 0 1 1 -13,0 6.5,6.5 0 1 1 13,0 z" transform="matrix(1.1538462,0,0,1.1538462,-0.6538465,1034.5545)" style="fill:#fff;fill-opacity:1;fill-rule:nonzero;stroke:#2a609e;stroke-width:.86666667;stroke-linecap:round;stroke-linejoin:round;stroke-miterlimit:4;stroke-opacity:1;stroke-dasharray:none;stroke-dashoffset:0"/><rect style="fill:#3d7fcb;fill-opacity:1;stroke:#6ab0ff;stroke-width:.74999994;stroke-linecap:round;stroke-linejoin:round;stroke-miterlimit:4;stroke-opacity:1;stroke-dasharray:none;stroke-dashoffset:0" id="rect8504" width="2.55" height="8.25" x="4.075" y="1040.237" rx="1.275" ry=".982"/><rect style="fill:#3d7fcb;fill-opacity:1;stroke:#6ab0ff;stroke-width:.74999994;stroke-linecap:round;stroke-linejoin:round;stroke-miterlimit:4;stroke-opacity:1;stroke-dasharray:none;stroke-dashoffset:0" id="rect8506" width="2.55" height="8.25" x="9.375" y="1040.237" rx="1.275" ry=".982"/></g><g style="display:none" id="g3800" transform="translate(0,-1036.3622)"><path style="fill:#fff;fill-opacity:1;fill-rule:nonzero;stroke:#000;stroke-width:.86666667;stroke-linecap:round;stroke-linejoin:round;stroke-miterlimit:4;stroke-opacity:1;stroke-dasharray:none;stroke-dashoffset:0" id="path3802" d="m 14,8.5 a 6.5,6.5 0 1 1 -13,0 6.5,6.5 0 1 1 13,0 z" transform="matrix(1.1538462,0,0,1.1538462,-0.6538465,1034.5545)"/><rect id="rect3804" width="2.55" height="8.25" x="4.075" y="1040.237" rx="1.275" ry=".982" style="fill:#3d7fcb;fill-opacity:1;stroke:#6ab0ff;stroke-width:.74999994;stroke-linecap:round;stroke-linejoin:round;stroke-miterlimit:4;stroke-opacity:1;stroke-dasharray:none;stroke-dashoffset:0"/><rect id="rect3806" width="2.55" height="8.25" x="9.375" y="1040.237" rx="1.275" ry=".982" style="fill:#3d7fcb;fill-opacity:1;stroke:#6ab0ff;stroke-width:.74999994;stroke-linecap:round;stroke-linejoin:round;stroke-miterlimit:4;stroke-opacity:1;stroke-dasharray:none;stroke-dashoffset:0"/></g></svg>