<svg xmlns="http://www.w3.org/2000/svg" xmlns:svg="http://www.w3.org/2000/svg" id="svg2" width="18" height="18" version="1.1"><metadata id="metadata7"/><g id="layer1" transform="translate(0,-1034.3622)" style="display:none"><path style="fill:none;stroke:#004ca2;stroke-width:1.57142866;stroke-linecap:round;stroke-linejoin:round;stroke-miterlimit:4;stroke-opacity:1;stroke-dasharray:none;stroke-dashoffset:1.6" id="path2987" d="m 8.4960005,2.0000015 c 3.0375655,-0.00221 5.5017895,2.4584337 5.5039985,5.495999 0.0022,3.0375655 -2.458434,5.5017895 -5.4959995,5.5039985 -3.0375653,0.0022 -5.5017892,-2.458434 -5.503998,-5.4959995 -7.6e-5,-0.1044002 0.00282,-0.2087814 0.00869,-0.3130167" transform="matrix(1.2727273,0,0,1.2727273,-2.8181821,1034.8167)"/><path style="fill:none;stroke:#444;stroke-width:1.60000002;stroke-linecap:round;stroke-linejoin:miter;stroke-miterlimit:4;stroke-opacity:1;stroke-dasharray:none" id="path3759" d="m 10.262673,1042.0995 -4.5253421,4.5254"/><path style="fill:none;stroke:#444;stroke-width:1.60000002;stroke-linecap:round;stroke-linejoin:miter;stroke-miterlimit:4;stroke-opacity:1;stroke-dasharray:none" id="path3759-5" d="m 10.262673,1046.6249 -4.5253421,-4.5254"/></g><g id="g3837" transform="translate(0,-1034.3622)" style="display:none"><path id="path3839-3" d="m 14,7.5 a 5.5,5.5 0 1 1 -11,0 5.5,5.5 0 1 1 11,0 z" transform="matrix(1.2727273,0,0,1.2727273,-2.818182,1034.8167)" style="fill:#e8e8e8;fill-opacity:1;stroke:none"/><path id="path3839" d="M 8.4960005,2.0000015 A 5.5,5.5 0 0 1 12.024351,3.2775657" transform="matrix(1.2727273,0,0,1.2727273,-2.8181821,1034.8167)" style="fill:none;stroke:#004ca2;stroke-width:1.57142866;stroke-linecap:round;stroke-linejoin:round;stroke-miterlimit:4;stroke-opacity:1;stroke-dasharray:none;stroke-dashoffset:1.6"/><path id="path3841" d="m 10.262673,1042.0995 -4.5253421,4.5254" style="fill:none;stroke:#444;stroke-width:1.60000002;stroke-linecap:round;stroke-linejoin:miter;stroke-miterlimit:4;stroke-opacity:1;stroke-dasharray:none"/><path id="path3843" d="m 10.262673,1046.6249 -4.5253421,-4.5254" style="fill:none;stroke:#444;stroke-width:1.60000002;stroke-linecap:round;stroke-linejoin:miter;stroke-miterlimit:4;stroke-opacity:1;stroke-dasharray:none"/></g><g id="g3863" transform="translate(0,-1034.3622)" style="display:none"><path style="fill:#e8e8e8;fill-opacity:1;stroke:none" id="path3865" d="m 14,7.5 a 5.5,5.5 0 1 1 -11,0 5.5,5.5 0 1 1 11,0 z" transform="matrix(1.2727273,0,0,1.2727273,-2.818182,1034.8167)"/><path style="fill:none;stroke:#004ca2;stroke-width:1.57142866;stroke-linecap:round;stroke-linejoin:round;stroke-miterlimit:4;stroke-opacity:1;stroke-dasharray:none;stroke-dashoffset:1.6" id="path3867" d="M 8.4960005,2.0000015 A 5.5,5.5 0 0 1 12.024351,3.2775657" transform="matrix(1.2727273,0,0,1.2727273,-2.8181821,1034.8167)"/></g><g style="display:inline" id="g3895" transform="translate(0,-1034.3622)"><path style="fill:none;stroke:silver;stroke-width:.84615386;stroke-miterlimit:4;stroke-opacity:1;stroke-dasharray:none" id="path3897" d="m 14,7.5 a 5.5,5.5 0 1 1 -11,0 5.5,5.5 0 1 1 11,0 z" transform="matrix(1.3295454,0,0,1.3295454,-2.3011364,1033.3908)"/><path style="fill:none;stroke:#004ca2;stroke-width:1.57142866;stroke-linecap:round;stroke-linejoin:round;stroke-miterlimit:4;stroke-opacity:1;stroke-dasharray:none;stroke-dashoffset:1.6" id="path3899" d="M 8.4960005,2.0000015 A 5.5,5.5 0 0 1 13.999999,7.4973616" transform="matrix(1.4318182,0,0,1.4318182,-3.1704547,1032.6236)"/><path style="fill:none;stroke:#444;stroke-width:1.99999988;stroke-linecap:round;stroke-linejoin:miter;stroke-miterlimit:4;stroke-opacity:1;stroke-dasharray:none" id="path3901" d="m 11.75,1040.6121 -5.5000001,5.5002"/><path style="fill:none;stroke:#444;stroke-width:1.99999988;stroke-linecap:round;stroke-linejoin:miter;stroke-miterlimit:4;stroke-opacity:1;stroke-dasharray:none" id="path3903" d="m 11.75,1046.1123 -5.5000001,-5.5002"/></g><g style="display:none" id="g3905" transform="translate(0,-1034.3622)"><path style="fill:#e8e8e8;fill-opacity:1;stroke:none" id="path3907" d="m 14,7.5 a 5.5,5.5 0 1 1 -11,0 5.5,5.5 0 1 1 11,0 z" transform="matrix(1.2727273,0,0,1.2727273,-2.818182,1034.8167)"/><path style="fill:#499fff;fill-opacity:1;stroke:none" id="path3909" d="M 8.4960005,2.0000015 A 5.5,5.5 0 0 1 13.427618,9.9430688 L 8.5,7.5 z" transform="matrix(1.2727273,0,0,1.2727273,-2.8181821,1034.8167)"/><path style="fill:none;stroke:#444;stroke-width:1.60000002;stroke-linecap:round;stroke-linejoin:miter;stroke-miterlimit:4;stroke-opacity:1;stroke-dasharray:none" id="path3911" d="m 10.262673,1042.0995 -4.5253421,4.5254"/><path style="fill:none;stroke:#444;stroke-width:1.60000002;stroke-linecap:round;stroke-linejoin:miter;stroke-miterlimit:4;stroke-opacity:1;stroke-dasharray:none" id="path3913" d="m 10.262673,1046.6249 -4.5253421,-4.5254"/></g></svg>