<svg xmlns="http://www.w3.org/2000/svg" xmlns:svg="http://www.w3.org/2000/svg" id="svg7357" width="16" height="16" version="1.1"><metadata id="metadata7362"/><g id="layer1" transform="translate(0,-1036.3622)" style="display:inline"><path style="fill:#444;fill-opacity:1;fill-rule:nonzero;stroke:#000;stroke-width:1;stroke-linecap:round;stroke-linejoin:round;stroke-miterlimit:4;stroke-opacity:1;stroke-dasharray:none" id="path7367" d="m 13,8.5 a 5.5,5.5 0 1 1 -11,0 5.5,5.5 0 1 1 11,0 z" transform="translate(0.5,1035.8622)"/></g><g id="g7896" transform="translate(0,-1036.3622)" style="display:none"><path id="path7898" d="M 13,8.5 C 13,11.537566 10.537566,14 7.5,14 4.4624339,14 2,11.537566 2,8.5 2,5.4624339 4.4624339,3 7.5,3 10.537566,3 13,5.4624339 13,8.5 z" transform="translate(0.5,1035.8622)" style="fill:red;fill-opacity:1;fill-rule:nonzero;stroke:maroon;stroke-width:1;stroke-linecap:round;stroke-linejoin:round;stroke-miterlimit:4;stroke-opacity:1;stroke-dasharray:none"/></g><g style="display:none" id="g8134" transform="translate(0,-1036.3622)"><path style="fill:#fff;fill-opacity:1;fill-rule:nonzero;stroke:#000;stroke-width:.83333331;stroke-linecap:round;stroke-linejoin:round;stroke-miterlimit:4;stroke-opacity:1;stroke-dasharray:none;stroke-dashoffset:0" id="path8138" d="m 13.5,8.25 c 0,3.45178 -2.79822,6.25 -6.25,6.25 C 3.7982203,14.5 1,11.70178 1,8.25 1,4.7982203 3.7982203,2 7.25,2 10.70178,2 13.5,4.7982203 13.5,8.25 z" transform="matrix(1.2,0,0,1.2,-0.7,1034.4622)"/><path id="path8136" d="M 13,8.5 C 13,11.537566 10.537566,14 7.5,14 4.4624339,14 2,11.537566 2,8.5 2,5.4624339 4.4624339,3 7.5,3 10.537566,3 13,5.4624339 13,8.5 z" transform="matrix(0.90909091,0,0,0.90909091,1.1818182,1036.6349)" style="fill:#444;fill-opacity:1;fill-rule:nonzero;stroke:#000;stroke-width:1.10000002;stroke-linecap:round;stroke-linejoin:round;stroke-miterlimit:4;stroke-opacity:1;stroke-dasharray:none"/></g><g id="g8140" transform="translate(0,-1036.3622)" style="display:none"><path id="path8142" d="m 13.5,8.25 a 6.25,6.25 0 1 1 -12.5,0 6.25,6.25 0 1 1 12.5,0 z" transform="matrix(1.2,0,0,1.2,-0.7,1034.4622)" style="fill:#fff;fill-opacity:1;fill-rule:nonzero;stroke:maroon;stroke-width:.83333331;stroke-linecap:round;stroke-linejoin:round;stroke-miterlimit:4;stroke-opacity:1;stroke-dasharray:none;stroke-dashoffset:0"/><path style="fill:red;fill-opacity:1;fill-rule:nonzero;stroke:maroon;stroke-width:1.10000002;stroke-linecap:round;stroke-linejoin:round;stroke-miterlimit:4;stroke-opacity:1;stroke-dasharray:none" id="path8144" d="m 13,8.5 a 5.5,5.5 0 1 1 -11,0 5.5,5.5 0 1 1 11,0 z" transform="matrix(0.90909091,0,0,0.90909091,1.1818182,1036.6349)"/></g><g style="display:none" id="g3000" transform="translate(0,-1036.3622)"><path style="fill:#fff;fill-opacity:1;fill-rule:nonzero;stroke:#000;stroke-width:.83333331;stroke-linecap:round;stroke-linejoin:round;stroke-miterlimit:4;stroke-opacity:1;stroke-dasharray:none;stroke-dashoffset:0" id="path3002" d="m 13.5,8.25 a 6.25,6.25 0 1 1 -12.5,0 6.25,6.25 0 1 1 12.5,0 z" transform="matrix(1.2,0,0,1.2,-0.7,1034.4622)"/><path id="path3004" d="m 13,8.5 a 5.5,5.5 0 1 1 -11,0 5.5,5.5 0 1 1 11,0 z" transform="matrix(0.90909091,0,0,0.90909091,1.1818182,1036.6349)" style="fill:red;fill-opacity:1;fill-rule:nonzero;stroke:maroon;stroke-width:1.10000002;stroke-linecap:round;stroke-linejoin:round;stroke-miterlimit:4;stroke-opacity:1;stroke-dasharray:none"/></g></svg>